<svg viewBox="-5 -5 1010 1510" height="1000" width="1500" xmlns="http://www.w3.org/2000/svg">
  <circle cx="703.5894205305636" cy="747.3126575846188" r="17.39043824701195"/>
  <text x="713.5894205305636" y="757.3126575846188" style="font-size:11pt">Divesh Srivastava</text>
  <circle cx="332.4658548971765" cy="333.35406588272895" r="25.0"/>
  <text x="342.4658548971765" y="343.35406588272895" style="font-size:11pt">Yoshua Bengio</text>
  <circle cx="318.6476783223791" cy="407.7090734083535" r="8.54581673306773"/>
  <text x="328.6476783223791" y="417.7090734083535" style="font-size:11pt">Donald A. Norman</text>
  <circle cx="370.2132877976542" cy="365.1702095657888" r="7.5498007968127485"/>
  <text x="380.2132877976542" y="375.1702095657888" style="font-size:11pt">Richard Socher</text>
  <circle cx="301.66362235082397" cy="347.92082998517446" r="14.920318725099602"/>
  <text x="311.66362235082397" y="357.92082998517446" style="font-size:11pt">Geoffrey Hinton</text>
  <circle cx="281.6007566455846" cy="463.6355749632451" r="9.302788844621514"/>
  <text x="291.6007566455846" y="473.6355749632451" style="font-size:11pt">Michael S. Bernstein</text>
  <circle cx="282.6742022790502" cy="512.2262103317116" r="5.597609561752988"/>
  <text x="292.6742022790502" y="522.2262103317116" style="font-size:11pt">Samuel Madden</text>
  <circle cx="302.79717560750174" cy="366.5558320782922" r="17.788844621513945"/>
  <text x="312.79717560750174" y="376.5558320782922" style="font-size:11pt">Christopher D. Manning</text>
  <circle cx="218.0520148304619" cy="323.04790392239596" r="5.836653386454183"/>
  <text x="228.0520148304619" y="333.04790392239596" style="font-size:11pt">Ian J. Goodfellow</text>
  <circle cx="244.19203612810983" cy="312.08743602432145" r="5.796812749003984"/>
  <text x="254.19203612810983" y="322.08743602432145" style="font-size:11pt">Pascal Vincent</text>
  <circle cx="311.7388011913231" cy="415.9071511303361" r="7.350597609561753"/>
  <text x="321.7388011913231" y="425.9071511303361" style="font-size:11pt">Shimei Pan</text>
  <circle cx="0.0" cy="278.68702156665466" r="5.079681274900398"/>
  <text x="10.0" y="288.68702156665466" style="font-size:11pt">Daniel Jurafsky</text>
  <circle cx="308.54573872690275" cy="357.3426700662114" r="12.649402390438247"/>
  <text x="318.54573872690275" y="367.3426700662114" style="font-size:11pt">Li Fei-Fei</text>
  <circle cx="266.5247766168291" cy="336.91374907860023" r="7.151394422310757"/>
  <text x="276.5247766168291" y="346.91374907860023" style="font-size:11pt">Hugo Larochelle</text>
  <circle cx="313.1793098508096" cy="535.340476209009" r="18.665338645418323"/>
  <text x="323.1793098508096" y="545.340476209009" style="font-size:11pt">Michael Stonebraker</text>
  <circle cx="330.8717707498385" cy="404.64086962182137" r="9.980079681274901"/>
  <text x="340.8717707498385" y="414.64086962182137" style="font-size:11pt">Wai-Tat Fu</text>
  <circle cx="237.75507708943886" cy="321.68772964307516" r="5.677290836653387"/>
  <text x="247.75507708943886" y="331.68772964307516" style="font-size:11pt">Kyunghyun Cho</text>
  <circle cx="389.07058862746675" cy="365.3636346878956" r="5.0"/>
  <text x="399.07058862746675" y="375.3636346878956" style="font-size:11pt">Dan Klein</text>
  <circle cx="199.08420118717032" cy="321.7478724958824" r="14.282868525896413"/>
  <text x="209.08420118717032" y="331.7478724958824" style="font-size:11pt">Andrew Y. Ng</text>
  <circle cx="165.90716547713123" cy="591.4394160474238" r="6.474103585657371"/>
  <text x="175.90716547713123" y="601.4394160474238" style="font-size:11pt">Nick Koudas</text>
  <circle cx="399.8078399378025" cy="0.0" r="5.0"/>
  <text x="409.8078399378025" y="10.0" style="font-size:11pt">Adam Coates</text>
  <circle cx="292.02213101839936" cy="226.87203869409385" r="8.346613545816734"/>
  <text x="302.02213101839936" y="236.87203869409385" style="font-size:11pt">Aaron C. Courville</text>
  <circle cx="1067.4272806213262" cy="1000.0" r="5.079681274900398"/>
  <text x="1077.4272806213262" y="1010.0" style="font-size:11pt">Graham Cormode</text>
  <circle cx="287.24897405568106" cy="521.3828901049259" r="5.039840637450199"/>
  <text x="297.24897405568106" y="531.3828901049259" style="font-size:11pt">H. V. Jagadish</text>
  <line x1="318.6476783223791" y1="407.7090734083535" x2="318.6476783223791" y2="407.7090734083535" stroke-width="1.0" stroke="black" />
  <line x1="332.4658548971765" y1="333.35406588272895" x2="301.66362235082397" y2="347.92082998517446" stroke-width="1.0597014925373134" stroke="black" />
  <line x1="281.6007566455846" y1="463.6355749632451" x2="282.6742022790502" y2="512.2262103317116" stroke-width="1.2388059701492538" stroke="black" />
  <line x1="313.1793098508096" y1="535.340476209009" x2="282.6742022790502" y2="512.2262103317116" stroke-width="3.388059701492537" stroke="black" />
  <line x1="703.5894205305636" y1="747.3126575846188" x2="1067.4272806213262" y2="1000.0" stroke-width="2.91044776119403" stroke="black" />
  <line x1="703.5894205305636" y1="747.3126575846188" x2="287.24897405568106" y2="521.3828901049259" stroke-width="2.731343283582089" stroke="black" />
  <line x1="282.6742022790502" y1="512.2262103317116" x2="287.24897405568106" y2="521.3828901049259" stroke-width="1.0" stroke="black" />
  <line x1="313.1793098508096" y1="535.340476209009" x2="287.24897405568106" y2="521.3828901049259" stroke-width="1.0597014925373134" stroke="black" />
  <line x1="165.90716547713123" y1="591.4394160474238" x2="287.24897405568106" y2="521.3828901049259" stroke-width="1.4776119402985075" stroke="black" />
  <line x1="332.4658548971765" y1="333.35406588272895" x2="292.02213101839936" y2="226.87203869409385" stroke-width="4.701492537313433" stroke="black" />
  <line x1="302.79717560750174" y1="366.5558320782922" x2="0.0" y2="278.68702156665466" stroke-width="2.253731343283582" stroke="black" />
  <line x1="199.08420118717032" y1="321.7478724958824" x2="0.0" y2="278.68702156665466" stroke-width="1.5970149253731343" stroke="black" />
  <line x1="370.2132877976542" y1="365.1702095657888" x2="389.07058862746675" y2="365.3636346878956" stroke-width="1.0" stroke="black" />
  <line x1="302.79717560750174" y1="366.5558320782922" x2="389.07058862746675" y2="365.3636346878956" stroke-width="2.731343283582089" stroke="black" />
  <line x1="308.54573872690275" y1="357.3426700662114" x2="281.6007566455846" y2="463.6355749632451" stroke-width="1.537313432835821" stroke="black" />
  <line x1="703.5894205305636" y1="747.3126575846188" x2="165.90716547713123" y2="591.4394160474238" stroke-width="5.0" stroke="black" />
  <line x1="165.90716547713123" y1="591.4394160474238" x2="165.90716547713123" y2="591.4394160474238" stroke-width="1.0" stroke="black" />
  <line x1="332.4658548971765" y1="333.35406588272895" x2="244.19203612810983" y2="312.08743602432145" stroke-width="3.925373134328358" stroke="black" />
  <line x1="218.0520148304619" y1="323.04790392239596" x2="244.19203612810983" y2="312.08743602432145" stroke-width="1.0597014925373134" stroke="black" />
  <line x1="266.5247766168291" y1="336.91374907860023" x2="244.19203612810983" y2="312.08743602432145" stroke-width="1.2985074626865671" stroke="black" />
  <line x1="292.02213101839936" y1="226.87203869409385" x2="244.19203612810983" y2="312.08743602432145" stroke-width="1.4776119402985075" stroke="black" />
  <line x1="302.79717560750174" y1="366.5558320782922" x2="199.08420118717032" y2="321.7478724958824" stroke-width="2.1940298507462686" stroke="black" />
  <line x1="301.66362235082397" y1="347.92082998517446" x2="308.54573872690275" y2="357.3426700662114" stroke-width="1.0" stroke="black" />
  <line x1="302.79717560750174" y1="366.5558320782922" x2="308.54573872690275" y2="357.3426700662114" stroke-width="1.0" stroke="black" />
  <line x1="332.4658548971765" y1="333.35406588272895" x2="266.5247766168291" y2="336.91374907860023" stroke-width="2.373134328358209" stroke="black" />
  <line x1="301.66362235082397" y1="347.92082998517446" x2="266.5247766168291" y2="336.91374907860023" stroke-width="1.0597014925373134" stroke="black" />
  <line x1="292.02213101839936" y1="226.87203869409385" x2="266.5247766168291" y2="336.91374907860023" stroke-width="1.5970149253731343" stroke="black" />
  <line x1="302.79717560750174" y1="366.5558320782922" x2="370.2132877976542" y2="365.1702095657888" stroke-width="2.432835820895522" stroke="black" />
  <line x1="308.54573872690275" y1="357.3426700662114" x2="370.2132877976542" y2="365.1702095657888" stroke-width="1.1194029850746268" stroke="black" />
  <line x1="199.08420118717032" y1="321.7478724958824" x2="370.2132877976542" y2="365.1702095657888" stroke-width="1.716417910447761" stroke="black" />
  <line x1="332.4658548971765" y1="333.35406588272895" x2="237.75507708943886" y2="321.68772964307516" stroke-width="3.5074626865671643" stroke="black" />
  <line x1="218.0520148304619" y1="323.04790392239596" x2="237.75507708943886" y2="321.68772964307516" stroke-width="1.0" stroke="black" />
  <line x1="244.19203612810983" y1="312.08743602432145" x2="237.75507708943886" y2="321.68772964307516" stroke-width="1.0" stroke="black" />
  <line x1="266.5247766168291" y1="336.91374907860023" x2="237.75507708943886" y2="321.68772964307516" stroke-width="1.0597014925373134" stroke="black" />
  <line x1="292.02213101839936" y1="226.87203869409385" x2="237.75507708943886" y2="321.68772964307516" stroke-width="1.5970149253731343" stroke="black" />
  <line x1="332.4658548971765" y1="333.35406588272895" x2="218.0520148304619" y2="323.04790392239596" stroke-width="2.074626865671642" stroke="black" />
  <line x1="199.08420118717032" y1="321.7478724958824" x2="218.0520148304619" y2="323.04790392239596" stroke-width="1.0" stroke="black" />
  <line x1="292.02213101839936" y1="226.87203869409385" x2="218.0520148304619" y2="323.04790392239596" stroke-width="1.8955223880597014" stroke="black" />
  <line x1="199.08420118717032" y1="321.7478724958824" x2="399.8078399378025" y2="0.0" stroke-width="2.791044776119403" stroke="black" />
</svg>