<svg viewBox="-5 -5 1510 1010" height="1000" width="1500" xmlns="http://www.w3.org/2000/svg">
  <circle cx="776.8842291865009" cy="926.1724576802317" r="11.195219123505975"/>
  <text x="786.8842291865009" y="936.1724576802317" style="font-size:11pt">Divesh Srivastava</text>
  <circle cx="934.2703947467439" cy="80.72364666781765" r="15.0"/>
  <text x="944.2703947467439" y="90.72364666781765" style="font-size:11pt">Yoshua Bengio</text>
  <circle cx="37.931333837984916" cy="7.973918393451962" r="6.772908366533865"/>
  <text x="47.931333837984916" y="17.97391839345196" style="font-size:11pt">Donald A. Norman</text>
  <circle cx="195.41199498160705" cy="313.09991225719955" r="6.274900398406374"/>
  <text x="205.41199498160705" y="323.09991225719955" style="font-size:11pt">Richard Socher</text>
  <circle cx="708.3807259006842" cy="235.80026197831128" r="9.9601593625498"/>
  <text x="718.3807259006842" y="245.80026197831128" style="font-size:11pt">Geoffrey Hinton</text>
  <circle cx="335.1454008011312" cy="590.9451423362559" r="7.151394422310757"/>
  <text x="345.1454008011312" y="600.9451423362559" style="font-size:11pt">Michael S. Bernstein</text>
  <circle cx="326.4367737419891" cy="793.048148397165" r="5.298804780876494"/>
  <text x="336.4367737419891" y="803.048148397165" style="font-size:11pt">Samuel Madden</text>
  <circle cx="128.08373468056703" cy="304.0722440499941" r="11.394422310756973"/>
  <text x="138.08373468056703" y="314.0722440499941" style="font-size:11pt">Christopher D. Manning</text>
  <circle cx="781.5942892540537" cy="150.74703010723405" r="5.418326693227091"/>
  <text x="791.5942892540537" y="160.74703010723405" style="font-size:11pt">Ian J. Goodfellow</text>
  <circle cx="886.6634255542947" cy="60.64608703261417" r="5.398406374501992"/>
  <text x="896.6634255542947" y="70.64608703261416" style="font-size:11pt">Pascal Vincent</text>
  <circle cx="167.70037943852932" cy="340.44841740300905" r="5.039840637450199"/>
  <text x="177.70037943852932" y="350.44841740300905" style="font-size:11pt">Daniel Jurafsky</text>
  <circle cx="361.59188076906275" cy="419.6284458138373" r="8.824701195219124"/>
  <text x="371.59188076906275" y="429.6284458138373" style="font-size:11pt">Li Fei-Fei</text>
  <circle cx="933.3752271901159" cy="143.73530933138093" r="6.075697211155378"/>
  <text x="943.3752271901159" y="153.73530933138093" style="font-size:11pt">Hugo Larochelle</text>
  <circle cx="329.52972313876614" cy="825.78570687688" r="11.832669322709162"/>
  <text x="339.52972313876614" y="835.78570687688" style="font-size:11pt">Michael Stonebraker</text>
  <circle cx="952.7001501837234" cy="54.0725734655906" r="5.338645418326693"/>
  <text x="962.7001501837234" y="64.07257346559061" style="font-size:11pt">Kyunghyun Cho</text>
  <circle cx="49.71798166792667" cy="282.78896420587023" r="5.0"/>
  <text x="59.71798166792667" y="292.78896420587023" style="font-size:11pt">Dan Klein</text>
  <circle cx="347.4914792466432" cy="317.35585195826593" r="9.641434262948206"/>
  <text x="357.4914792466432" y="327.35585195826593" style="font-size:11pt">Andrew Y. Ng</text>
  <circle cx="802.0355198980426" cy="944.4127905149932" r="5.7370517928286855"/>
  <text x="812.0355198980426" y="954.4127905149932" style="font-size:11pt">Nick Koudas</text>
  <circle cx="419.2060317655319" cy="359.7260799510235" r="5.0"/>
  <text x="429.2060317655319" y="369.7260799510235" style="font-size:11pt">Adam Coates</text>
  <circle cx="966.507217300975" cy="103.63891050268144" r="6.673306772908367"/>
  <text x="976.507217300975" y="113.63891050268144" style="font-size:11pt">Aaron C. Courville</text>
  <circle cx="793.4665147776461" cy="880.7582775382148" r="5.039840637450199"/>
  <text x="803.4665147776461" y="890.7582775382148" style="font-size:11pt">Graham Cormode</text>
  <circle cx="612.5623295779487" cy="907.2855580486028" r="5.0199203187251"/>
  <text x="622.5623295779487" y="917.2855580486028" style="font-size:11pt">H. V. Jagadish</text>
  <line x1="37.931333837984916" y1="7.973918393451962" x2="37.931333837984916" y2="7.973918393451962" stroke-width="1.0" stroke="black" />
  <line x1="934.2703947467439" y1="80.72364666781765" x2="708.3807259006842" y2="235.80026197831128" stroke-width="1.0597014925373134" stroke="black" />
  <line x1="335.1454008011312" y1="590.9451423362559" x2="326.4367737419891" y2="793.048148397165" stroke-width="1.2388059701492538" stroke="black" />
  <line x1="329.52972313876614" y1="825.78570687688" x2="326.4367737419891" y2="793.048148397165" stroke-width="3.388059701492537" stroke="black" />
  <line x1="776.8842291865009" y1="926.1724576802317" x2="793.4665147776461" y2="880.7582775382148" stroke-width="2.91044776119403" stroke="black" />
  <line x1="776.8842291865009" y1="926.1724576802317" x2="612.5623295779487" y2="907.2855580486028" stroke-width="2.731343283582089" stroke="black" />
  <line x1="326.4367737419891" y1="793.048148397165" x2="612.5623295779487" y2="907.2855580486028" stroke-width="1.0" stroke="black" />
  <line x1="329.52972313876614" y1="825.78570687688" x2="612.5623295779487" y2="907.2855580486028" stroke-width="1.0597014925373134" stroke="black" />
  <line x1="802.0355198980426" y1="944.4127905149932" x2="612.5623295779487" y2="907.2855580486028" stroke-width="1.4776119402985075" stroke="black" />
  <line x1="934.2703947467439" y1="80.72364666781765" x2="966.507217300975" y2="103.63891050268144" stroke-width="4.701492537313433" stroke="black" />
  <line x1="128.08373468056703" y1="304.0722440499941" x2="167.70037943852932" y2="340.44841740300905" stroke-width="2.253731343283582" stroke="black" />
  <line x1="347.4914792466432" y1="317.35585195826593" x2="167.70037943852932" y2="340.44841740300905" stroke-width="1.5970149253731343" stroke="black" />
  <line x1="195.41199498160705" y1="313.09991225719955" x2="49.71798166792667" y2="282.78896420587023" stroke-width="1.0" stroke="black" />
  <line x1="128.08373468056703" y1="304.0722440499941" x2="49.71798166792667" y2="282.78896420587023" stroke-width="2.731343283582089" stroke="black" />
  <line x1="361.59188076906275" y1="419.6284458138373" x2="335.1454008011312" y2="590.9451423362559" stroke-width="1.537313432835821" stroke="black" />
  <line x1="776.8842291865009" y1="926.1724576802317" x2="802.0355198980426" y2="944.4127905149932" stroke-width="5.0" stroke="black" />
  <line x1="802.0355198980426" y1="944.4127905149932" x2="802.0355198980426" y2="944.4127905149932" stroke-width="1.0" stroke="black" />
  <line x1="934.2703947467439" y1="80.72364666781765" x2="886.6634255542947" y2="60.64608703261417" stroke-width="3.925373134328358" stroke="black" />
  <line x1="781.5942892540537" y1="150.74703010723405" x2="886.6634255542947" y2="60.64608703261417" stroke-width="1.0597014925373134" stroke="black" />
  <line x1="933.3752271901159" y1="143.73530933138093" x2="886.6634255542947" y2="60.64608703261417" stroke-width="1.2985074626865671" stroke="black" />
  <line x1="966.507217300975" y1="103.63891050268144" x2="886.6634255542947" y2="60.64608703261417" stroke-width="1.4776119402985075" stroke="black" />
  <line x1="128.08373468056703" y1="304.0722440499941" x2="347.4914792466432" y2="317.35585195826593" stroke-width="2.1940298507462686" stroke="black" />
  <line x1="708.3807259006842" y1="235.80026197831128" x2="361.59188076906275" y2="419.6284458138373" stroke-width="1.0" stroke="black" />
  <line x1="128.08373468056703" y1="304.0722440499941" x2="361.59188076906275" y2="419.6284458138373" stroke-width="1.0" stroke="black" />
  <line x1="934.2703947467439" y1="80.72364666781765" x2="933.3752271901159" y2="143.73530933138093" stroke-width="2.373134328358209" stroke="black" />
  <line x1="708.3807259006842" y1="235.80026197831128" x2="933.3752271901159" y2="143.73530933138093" stroke-width="1.0597014925373134" stroke="black" />
  <line x1="966.507217300975" y1="103.63891050268144" x2="933.3752271901159" y2="143.73530933138093" stroke-width="1.5970149253731343" stroke="black" />
  <line x1="128.08373468056703" y1="304.0722440499941" x2="195.41199498160705" y2="313.09991225719955" stroke-width="2.432835820895522" stroke="black" />
  <line x1="361.59188076906275" y1="419.6284458138373" x2="195.41199498160705" y2="313.09991225719955" stroke-width="1.1194029850746268" stroke="black" />
  <line x1="347.4914792466432" y1="317.35585195826593" x2="195.41199498160705" y2="313.09991225719955" stroke-width="1.716417910447761" stroke="black" />
  <line x1="934.2703947467439" y1="80.72364666781765" x2="952.7001501837234" y2="54.0725734655906" stroke-width="3.5074626865671643" stroke="black" />
  <line x1="781.5942892540537" y1="150.74703010723405" x2="952.7001501837234" y2="54.0725734655906" stroke-width="1.0" stroke="black" />
  <line x1="886.6634255542947" y1="60.64608703261417" x2="952.7001501837234" y2="54.0725734655906" stroke-width="1.0" stroke="black" />
  <line x1="933.3752271901159" y1="143.73530933138093" x2="952.7001501837234" y2="54.0725734655906" stroke-width="1.0597014925373134" stroke="black" />
  <line x1="966.507217300975" y1="103.63891050268144" x2="952.7001501837234" y2="54.0725734655906" stroke-width="1.5970149253731343" stroke="black" />
  <line x1="934.2703947467439" y1="80.72364666781765" x2="781.5942892540537" y2="150.74703010723405" stroke-width="2.074626865671642" stroke="black" />
  <line x1="347.4914792466432" y1="317.35585195826593" x2="781.5942892540537" y2="150.74703010723405" stroke-width="1.0" stroke="black" />
  <line x1="966.507217300975" y1="103.63891050268144" x2="781.5942892540537" y2="150.74703010723405" stroke-width="1.8955223880597014" stroke="black" />
  <line x1="347.4914792466432" y1="317.35585195826593" x2="419.2060317655319" y2="359.7260799510235" stroke-width="2.791044776119403" stroke="black" />
  <circle cx="758.9981769266719" cy="915.4755392871176" r="3" style="fill-opacity:0.3" />
  <circle cx="281.6861221292907" cy="792.1721056278712" r="3" style="fill-opacity:0.3" />
  <circle cx="867.2978286025419" cy="914.806876305626" r="3" style="fill-opacity:0.3" />
  <circle cx="678.1116992271931" cy="947.796851597767" r="3" style="fill-opacity:0.3" />
  <circle cx="812.7152755881974" cy="992.3021149832741" r="3" style="fill-opacity:0.3" />
  <circle cx="446.5011910249869" cy="356.61265489712605" r="3" style="fill-opacity:0.3" />
  <circle cx="841.5295534937019" cy="991.0597282845015" r="3" style="fill-opacity:0.3" />
  <circle cx="763.2605222630513" cy="871.7578325737629" r="3" style="fill-opacity:0.3" />
  <circle cx="828.4838463012924" cy="989.695170632211" r="3" style="fill-opacity:0.3" />
  <circle cx="1023.7284049568067" cy="70.4241555220021" r="3" style="fill-opacity:0.3" />
  <circle cx="678.692874565075" cy="889.2879453825562" r="3" style="fill-opacity:0.3" />
  <circle cx="838.424661196143" cy="917.4715950843761" r="3" style="fill-opacity:0.3" />
  <circle cx="865.1104968005773" cy="105.27223749546842" r="3" style="fill-opacity:0.3" />
  <circle cx="870.7368340257015" cy="84.79525722628013" r="3" style="fill-opacity:0.3" />
  <circle cx="834.578667381099" cy="91.9387104545023" r="3" style="fill-opacity:0.3" />
  <circle cx="383.6532994760245" cy="387.0017842500153" r="3" style="fill-opacity:0.3" />
  <circle cx="250.171347451495" cy="797.3659253182745" r="3" style="fill-opacity:0.3" />
  <circle cx="279.2795490500348" cy="852.8231592340936" r="3" style="fill-opacity:0.3" />
  <circle cx="321.07176604318323" cy="689.5756518965724" r="3" style="fill-opacity:0.3" />
  <circle cx="307.88423690398946" cy="691.7222083886442" r="3" style="fill-opacity:0.3" />
  <circle cx="985.1339520291391" cy="151.40050618507345" r="3" style="fill-opacity:0.3" />
  <circle cx="416.06527147976976" cy="376.29663469026656" r="3" style="fill-opacity:0.3" />
  <circle cx="704.9670009270415" cy="946.4239487503662" r="3" style="fill-opacity:0.3" />
  <circle cx="819.7061547040764" cy="884.0139172176916" r="3" style="fill-opacity:0.3" />
  <circle cx="1052.4461575096104" cy="47.050885756306116" r="3" style="fill-opacity:0.3" />
  <circle cx="254.2750957797944" cy="822.6471702186677" r="3" style="fill-opacity:0.3" />
  <circle cx="949.3055377799174" cy="130.4329331806647" r="3" style="fill-opacity:0.3" />
  <circle cx="266.66651010524805" cy="831.2204898528172" r="3" style="fill-opacity:0.3" />
  <circle cx="685.2761956441308" cy="904.2738210553665" r="3" style="fill-opacity:0.3" />
  <circle cx="432.2087078483261" cy="361.82286934836867" r="3" style="fill-opacity:0.3" />
  <circle cx="715.4946286803734" cy="945.6805506612469" r="3" style="fill-opacity:0.3" />
  <circle cx="939.5710522104162" cy="25.449669182275617" r="3" style="fill-opacity:0.3" />
  <circle cx="989.9677363583" cy="172.8874071005785" r="3" style="fill-opacity:0.3" />
  <circle cx="844.1359344459065" cy="886.6403224286072" r="3" style="fill-opacity:0.3" />
  <circle cx="1023.7648622328776" cy="121.39873578740632" r="3" style="fill-opacity:0.3" />
  <circle cx="15.272141518205991" cy="282.91708153323196" r="3" style="fill-opacity:0.3" />
  <circle cx="98.01564862225892" cy="345.3456532513995" r="3" style="fill-opacity:0.3" />
  <circle cx="328.7387154865445" cy="846.7458300208766" r="3" style="fill-opacity:0.3" />
  <circle cx="233.4909126921921" cy="292.54111022178284" r="3" style="fill-opacity:0.3" />
  <circle cx="20.93831460317495" cy="300.4143541410244" r="3" style="fill-opacity:0.3" />
  <circle cx="799.2030881198552" cy="851.6673328182062" r="3" style="fill-opacity:0.3" />
  <circle cx="235.82040691837577" cy="308.83552600237783" r="3" style="fill-opacity:0.3" />
  <circle cx="452.10835675148775" cy="348.18140629714236" r="3" style="fill-opacity:0.3" />
  <circle cx="758.609574316254" cy="889.720240003757" r="3" style="fill-opacity:0.3" />
  <circle cx="849.8308647788106" cy="916.839826649688" r="3" style="fill-opacity:0.3" />
  <circle cx="799.1786654115679" cy="914.707916481828" r="3" style="fill-opacity:0.3" />
  <circle cx="1054.3993455988787" cy="82.78646402595862" r="3" style="fill-opacity:0.3" />
  <circle cx="866.6591453164326" cy="45.17602111233005" r="3" style="fill-opacity:0.3" />
  <circle cx="983.2445379824229" cy="142.555055482033" r="3" style="fill-opacity:0.3" />
  <circle cx="263.7301803283732" cy="802.3836174697706" r="3" style="fill-opacity:0.3" />
  <circle cx="1043.4597008638593" cy="97.72726888793011" r="3" style="fill-opacity:0.3" />
  <circle cx="81.43864043134964" cy="344.8151589962386" r="3" style="fill-opacity:0.3" />
  <circle cx="237.13079980174786" cy="300.4625163905376" r="3" style="fill-opacity:0.3" />
  <circle cx="767.8920499007919" cy="843.7959555873447" r="3" style="fill-opacity:0.3" />
  <circle cx="398.6815805793627" cy="357.01129844816535" r="3" style="fill-opacity:0.3" />
  <circle cx="382.67691495596546" cy="378.72449098533104" r="3" style="fill-opacity:0.3" />
  <circle cx="249.75180068038915" cy="354.4002744116384" r="3" style="fill-opacity:0.3" />
  <circle cx="845.6637614571093" cy="976.3151199731602" r="3" style="fill-opacity:0.3" />
  <circle cx="1005.2438064622896" cy="28.19925893315972" r="3" style="fill-opacity:0.3" />
  <circle cx="142.70797383135834" cy="291.87625663603495" r="3" style="fill-opacity:0.3" />
  <circle cx="660.73480150637" cy="924.3321901204378" r="3" style="fill-opacity:0.3" />
  <circle cx="366.45512949160013" cy="511.6433716345129" r="3" style="fill-opacity:0.3" />
  <circle cx="930.5680169326587" cy="25.289454950643407" r="3" style="fill-opacity:0.3" />
  <circle cx="125.20125271949803" cy="268.58591513510936" r="3" style="fill-opacity:0.3" />
  <circle cx="929.4442580645748" cy="99.80779022274237" r="3" style="fill-opacity:0.3" />
  <circle cx="440.423105720618" cy="323.1233277935203" r="3" style="fill-opacity:0.3" />
  <circle cx="118.67272886447913" cy="281.1558737165884" r="3" style="fill-opacity:0.3" />
  <circle cx="1052.858423301731" cy="68.23967400356851" r="3" style="fill-opacity:0.3" />
  <circle cx="217.2221937229999" cy="301.33569577810835" r="3" style="fill-opacity:0.3" />
  <circle cx="895.211268692604" cy="35.98951546175451" r="3" style="fill-opacity:0.3" />
  <circle cx="888.204897853452" cy="4.6058719765983165" r="3" style="fill-opacity:0.3" />
  <circle cx="932.7215105157417" cy="65.9647467875222" r="3" style="fill-opacity:0.3" />
  <circle cx="1057.642943165167" cy="75.67686458518806" r="3" style="fill-opacity:0.3" />
  <circle cx="940.0425872667237" cy="53.671024300059436" r="3" style="fill-opacity:0.3" />
  <circle cx="757.1183355339816" cy="972.104377781239" r="3" style="fill-opacity:0.3" />
  <circle cx="1034.1806169583813" cy="54.755663160896376" r="3" style="fill-opacity:0.3" />
  <circle cx="807.2309043580029" cy="969.7791091048106" r="3" style="fill-opacity:0.3" />
  <circle cx="858.6304778846985" cy="70.94574710950484" r="3" style="fill-opacity:0.3" />
  <circle cx="249.1072507061764" cy="784.832557207664" r="3" style="fill-opacity:0.3" />
  <circle cx="260.8415697734819" cy="784.0798341231987" r="3" style="fill-opacity:0.3" />
  <circle cx="755.4761342953352" cy="856.6782001542679" r="3" style="fill-opacity:0.3" />
  <circle cx="898.7666388266707" cy="102.12238245522397" r="3" style="fill-opacity:0.3" />
  <circle cx="881.4106444560373" cy="65.70520108372662" r="3" style="fill-opacity:0.3" />
  <circle cx="716.8450080193785" cy="931.6736305686862" r="3" style="fill-opacity:0.3" />
  <circle cx="932.0814129387501" cy="72.95724320702809" r="3" style="fill-opacity:0.3" />
  <circle cx="661.7212170154628" cy="914.3822511552352" r="3" style="fill-opacity:0.3" />
  <circle cx="974.6047135556358" cy="0.7280929337144869" r="3" style="fill-opacity:0.3" />
  <circle cx="1019.575444543926" cy="27.856328850690943" r="3" style="fill-opacity:0.3" />
  <circle cx="877.8608529137832" cy="121.05692065003326" r="3" style="fill-opacity:0.3" />
  <circle cx="397.3231018060006" cy="376.9356544913536" r="3" style="fill-opacity:0.3" />
  <circle cx="866.0924861030206" cy="895.4178121601318" r="3" style="fill-opacity:0.3" />
  <circle cx="948.4251417058352" cy="0.4105700849419232" r="3" style="fill-opacity:0.3" />
  <circle cx="825.2765488676437" cy="206.37956379969236" r="3" style="fill-opacity:0.3" />
  <circle cx="806.036195230669" cy="902.3598995468255" r="3" style="fill-opacity:0.3" />
  <circle cx="126.0913131146076" cy="290.5742034815343" r="3" style="fill-opacity:0.3" />
  <circle cx="883.8428581051735" cy="143.44944416608357" r="3" style="fill-opacity:0.3" />
  <circle cx="773.6857317850072" cy="997.4147801851958" r="3" style="fill-opacity:0.3" />
  <circle cx="327.6537710460015" cy="505.50955186977984" r="3" style="fill-opacity:0.3" />
  <circle cx="923.9228402704418" cy="157.39870808271002" r="3" style="fill-opacity:0.3" />
  <circle cx="874.5094025724519" cy="14.713322276231363" r="3" style="fill-opacity:0.3" />
  <circle cx="873.317783932601" cy="56.54960981989583" r="3" style="fill-opacity:0.3" />
  <circle cx="267.2141025823241" cy="848.65579854226" r="3" style="fill-opacity:0.3" />
  <circle cx="254.2854148651191" cy="292.27941064677964" r="3" style="fill-opacity:0.3" />
  <circle cx="19.42837575257299" cy="272.7114653858538" r="3" style="fill-opacity:0.3" />
  <circle cx="0.0" cy="289.80196885789417" r="3" style="fill-opacity:0.3" />
  <circle cx="24.536008701415923" cy="254.54394184446383" r="3" style="fill-opacity:0.3" />
  <circle cx="852.3072357321535" cy="984.7913042391226" r="3" style="fill-opacity:0.3" />
  <circle cx="435.1541650395047" cy="350.2888299056655" r="3" style="fill-opacity:0.3" />
  <circle cx="32.21765105560751" cy="313.9864118600426" r="3" style="fill-opacity:0.3" />
  <circle cx="134.8872595404309" cy="261.204623846243" r="3" style="fill-opacity:0.3" />
  <circle cx="891.0793916900947" cy="133.84280693171502" r="3" style="fill-opacity:0.3" />
  <circle cx="825.9018749620892" cy="83.36789100026455" r="3" style="fill-opacity:0.3" />
  <circle cx="768.8967333337781" cy="863.1450506404684" r="3" style="fill-opacity:0.3" />
  <circle cx="1017.5638252887711" cy="81.06258997691387" r="3" style="fill-opacity:0.3" />
  <circle cx="148.5973953511176" cy="280.50954342322603" r="3" style="fill-opacity:0.3" />
  <circle cx="913.8722083076564" cy="2.1669126866223816" r="3" style="fill-opacity:0.3" />
  <circle cx="334.6695443004619" cy="692.205469515205" r="3" style="fill-opacity:0.3" />
  <circle cx="876.2883971680798" cy="7.563415880940081" r="3" style="fill-opacity:0.3" />
  <circle cx="960.5717003746893" cy="157.08349958966642" r="3" style="fill-opacity:0.3" />
  <circle cx="270.9251494757049" cy="328.3428419004475" r="3" style="fill-opacity:0.3" />
  <circle cx="6.495104685287278" cy="271.3974181250205" r="3" style="fill-opacity:0.3" />
  <circle cx="777.9745165037095" cy="882.6888556507614" r="3" style="fill-opacity:0.3" />
  <circle cx="1035.7549584252606" cy="103.4629518948492" r="3" style="fill-opacity:0.3" />
  <circle cx="999.6609979676466" cy="88.59093576666159" r="3" style="fill-opacity:0.3" />
  <circle cx="773.0845272072723" cy="985.9571313746563" r="3" style="fill-opacity:0.3" />
  <circle cx="747.7935097946977" cy="880.012548200259" r="3" style="fill-opacity:0.3" />
  <circle cx="650.8085551171331" cy="940.6352889582932" r="3" style="fill-opacity:0.3" />
  <circle cx="101.15511247471257" cy="316.27954984598557" r="3" style="fill-opacity:0.3" />
  <circle cx="112.62611153223611" cy="364.8338334819364" r="3" style="fill-opacity:0.3" />
  <circle cx="962.4174809286367" cy="0.002838042061810529" r="3" style="fill-opacity:0.3" />
  <circle cx="161.55963319091364" cy="263.1147950849166" r="3" style="fill-opacity:0.3" />
  <circle cx="779.4197253558852" cy="964.0652519927954" r="3" style="fill-opacity:0.3" />
  <circle cx="667.4079595208299" cy="962.7364739422127" r="3" style="fill-opacity:0.3" />
  <circle cx="895.4118099015657" cy="19.258581783081013" r="3" style="fill-opacity:0.3" />
  <circle cx="225.1594036776941" cy="286.1570275158314" r="3" style="fill-opacity:0.3" />
  <circle cx="859.6765555165568" cy="916.8565170399087" r="3" style="fill-opacity:0.3" />
  <circle cx="936.7189251221677" cy="153.8350732670966" r="3" style="fill-opacity:0.3" />
  <circle cx="299.0609999022568" cy="782.539351649291" r="3" style="fill-opacity:0.3" />
  <circle cx="441.7186747403004" cy="854.3597900794888" r="3" style="fill-opacity:0.3" />
  <circle cx="898.3331586713196" cy="115.04628542526878" r="3" style="fill-opacity:0.3" />
  <circle cx="374.3736917591086" cy="355.33752935599756" r="3" style="fill-opacity:0.3" />
  <circle cx="885.0840554976123" cy="127.33402775267274" r="3" style="fill-opacity:0.3" />
  <circle cx="357.45117754382653" cy="507.35251388022175" r="3" style="fill-opacity:0.3" />
  <circle cx="113.86366843518212" cy="324.9791539053317" r="3" style="fill-opacity:0.3" />
  <circle cx="851.9673606807369" cy="967.2587250366327" r="3" style="fill-opacity:0.3" />
  <circle cx="913.6620289682392" cy="77.70785532877873" r="3" style="fill-opacity:0.3" />
  <circle cx="853.6789407443199" cy="894.7373577895977" r="3" style="fill-opacity:0.3" />
  <circle cx="408.191298660904" cy="330.2007036317141" r="3" style="fill-opacity:0.3" />
  <circle cx="1033.2663564748452" cy="61.87093868579056" r="3" style="fill-opacity:0.3" />
  <circle cx="368.7437926162073" cy="367.61324801413076" r="3" style="fill-opacity:0.3" />
  <circle cx="995.2878272263148" cy="53.61960168079662" r="3" style="fill-opacity:0.3" />
  <circle cx="50.55361805464883" cy="244.9099546690353" r="3" style="fill-opacity:0.3" />
  <circle cx="881.0360668968666" cy="98.14115002194416" r="3" style="fill-opacity:0.3" />
  <circle cx="1025.8972200244452" cy="21.234433423756506" r="3" style="fill-opacity:0.3" />
  <circle cx="247.0732647026275" cy="808.0842641717123" r="3" style="fill-opacity:0.3" />
  <circle cx="876.873075494952" cy="908.8281352678418" r="3" style="fill-opacity:0.3" />
  <circle cx="677.1694606652356" cy="929.5130359042728" r="3" style="fill-opacity:0.3" />
  <circle cx="903.0432449294442" cy="47.06649498764607" r="3" style="fill-opacity:0.3" />
  <circle cx="244.15314688975263" cy="346.10662861888375" r="3" style="fill-opacity:0.3" />
  <circle cx="1045.678723257811" cy="113.36285347560484" r="3" style="fill-opacity:0.3" />
  <circle cx="807.679915522485" cy="161.98388600260762" r="3" style="fill-opacity:0.3" />
  <circle cx="881.0454693121751" cy="134.66607563314523" r="3" style="fill-opacity:0.3" />
  <circle cx="862.4394513263761" cy="129.35552456984237" r="3" style="fill-opacity:0.3" />
  <circle cx="990.2488659569674" cy="67.97810112687162" r="3" style="fill-opacity:0.3" />
  <circle cx="88.29517500871884" cy="336.70561428913635" r="3" style="fill-opacity:0.3" />
  <circle cx="858.4421152916657" cy="872.855175051448" r="3" style="fill-opacity:0.3" />
  <circle cx="268.0350460582159" cy="319.63480818045355" r="3" style="fill-opacity:0.3" />
  <circle cx="847.5766946373826" cy="875.6040552918166" r="3" style="fill-opacity:0.3" />
  <circle cx="266.3385255734696" cy="840.6494115961724" r="3" style="fill-opacity:0.3" />
  <circle cx="833.0117771319223" cy="859.9149533395477" r="3" style="fill-opacity:0.3" />
  <circle cx="997.653831109713" cy="102.89243786799524" r="3" style="fill-opacity:0.3" />
  <circle cx="874.4661619382615" cy="939.5426089782812" r="3" style="fill-opacity:0.3" />
  <circle cx="425.82956192008186" cy="317.8027929036785" r="3" style="fill-opacity:0.3" />
  <circle cx="19.682424299905936" cy="309.37726262058726" r="3" style="fill-opacity:0.3" />
  <circle cx="737.6500846357061" cy="887.2962142208206" r="3" style="fill-opacity:0.3" />
  <circle cx="837.4843279982905" cy="908.4510135357713" r="3" style="fill-opacity:0.3" />
  <circle cx="287.60414375355384" cy="815.6543359370116" r="3" style="fill-opacity:0.3" />
  <circle cx="844.543904984237" cy="96.95883521347989" r="3" style="fill-opacity:0.3" />
  <circle cx="36.35890428285343" cy="303.378427231419" r="3" style="fill-opacity:0.3" />
  <circle cx="322.9803253979509" cy="856.3045921885595" r="3" style="fill-opacity:0.3" />
  <circle cx="328.0877488222187" cy="514.0136351027963" r="3" style="fill-opacity:0.3" />
  <circle cx="892.9365651428142" cy="11.223476554225016" r="3" style="fill-opacity:0.3" />
  <circle cx="891.838813512617" cy="140.7404654456554" r="3" style="fill-opacity:0.3" />
  <circle cx="924.8694723008336" cy="25.80290406032596" r="3" style="fill-opacity:0.3" />
  <circle cx="984.8952511569337" cy="48.7486430611392" r="3" style="fill-opacity:0.3" />
  <circle cx="314.98230093532817" cy="777.5164226344666" r="3" style="fill-opacity:0.3" />
  <circle cx="862.2329386670235" cy="71.9870044702541" r="3" style="fill-opacity:0.3" />
  <circle cx="817.4720596360021" cy="114.48516396619081" r="3" style="fill-opacity:0.3" />
  <circle cx="450.4298815707736" cy="338.5980139787086" r="3" style="fill-opacity:0.3" />
  <circle cx="348.1337506411016" cy="512.9152874852143" r="3" style="fill-opacity:0.3" />
  <circle cx="395.0105266892578" cy="334.1961516149642" r="3" style="fill-opacity:0.3" />
  <circle cx="28.0075166242909" cy="264.5547297829202" r="3" style="fill-opacity:0.3" />
  <circle cx="918.7050497762295" cy="148.62525580388046" r="3" style="fill-opacity:0.3" />
  <circle cx="813.3021801136803" cy="851.2825078291106" r="3" style="fill-opacity:0.3" />
  <circle cx="865.6004438289234" cy="971.6709006425125" r="3" style="fill-opacity:0.3" />
  <circle cx="67.60478035905457" cy="337.9084204370112" r="3" style="fill-opacity:0.3" />
  <circle cx="352.6711100776118" cy="815.6042309801347" r="3" style="fill-opacity:0.3" />
  <circle cx="959.2844075757242" cy="145.26038529123886" r="3" style="fill-opacity:0.3" />
  <circle cx="149.21198331108823" cy="259.133900513787" r="3" style="fill-opacity:0.3" />
  <circle cx="812.7634138593312" cy="917.7611767333257" r="3" style="fill-opacity:0.3" />
  <circle cx="667.6287100298262" cy="907.0117207758532" r="3" style="fill-opacity:0.3" />
  <circle cx="881.8716247118731" cy="20.633173941232933" r="3" style="fill-opacity:0.3" />
  <circle cx="232.12253388265555" cy="315.19480117994976" r="3" style="fill-opacity:0.3" />
  <circle cx="111.0722772831465" cy="294.62348135186755" r="3" style="fill-opacity:0.3" />
  <circle cx="856.1326830435498" cy="952.4145487496228" r="3" style="fill-opacity:0.3" />
  <circle cx="297.07282120894354" cy="827.7072978562309" r="3" style="fill-opacity:0.3" />
  <circle cx="263.8392116791513" cy="382.6195770168597" r="3" style="fill-opacity:0.3" />
  <circle cx="75.26578454259685" cy="331.7777596833826" r="3" style="fill-opacity:0.3" />
  <circle cx="840.2564166988433" cy="893.728095974474" r="3" style="fill-opacity:0.3" />
  <circle cx="996.0491347700131" cy="122.18071773408019" r="3" style="fill-opacity:0.3" />
  <circle cx="1009.0929038601028" cy="140.94179750096882" r="3" style="fill-opacity:0.3" />
  <circle cx="76.95177641744336" cy="249.3378577580076" r="3" style="fill-opacity:0.3" />
  <circle cx="716.816335890802" cy="938.539023247281" r="3" style="fill-opacity:0.3" />
  <circle cx="563.8840800573846" cy="232.73260879921426" r="3" style="fill-opacity:0.3" />
  <circle cx="101.46845647680446" cy="275.01548253303366" r="3" style="fill-opacity:0.3" />
  <circle cx="901.0588114879112" cy="53.87610662524026" r="3" style="fill-opacity:0.3" />
  <circle cx="947.6262245009029" cy="146.86864291247986" r="3" style="fill-opacity:0.3" />
  <circle cx="817.8149989843296" cy="200.65704052352416" r="3" style="fill-opacity:0.3" />
  <circle cx="911.6498597110747" cy="106.95752768695856" r="3" style="fill-opacity:0.3" />
  <circle cx="237.2852979853269" cy="281.06655985717896" r="3" style="fill-opacity:0.3" />
  <circle cx="955.8723260604677" cy="93.65376630142643" r="3" style="fill-opacity:0.3" />
  <circle cx="997.1432721012894" cy="146.3409022338432" r="3" style="fill-opacity:0.3" />
  <circle cx="964.7374679772244" cy="10.618770877769244" r="3" style="fill-opacity:0.3" />
  <circle cx="1031.0692817801375" cy="77.79836859882147" r="3" style="fill-opacity:0.3" />
  <circle cx="247.77111249063643" cy="336.98773763112007" r="3" style="fill-opacity:0.3" />
  <circle cx="947.6066339531292" cy="159.30425060992565" r="3" style="fill-opacity:0.3" />
  <circle cx="791.717573863262" cy="975.874176080914" r="3" style="fill-opacity:0.3" />
  <circle cx="385.2231885456826" cy="368.83149868554733" r="3" style="fill-opacity:0.3" />
  <circle cx="251.70980783488514" cy="299.61269172410044" r="3" style="fill-opacity:0.3" />
  <circle cx="977.2961352947674" cy="8.364655970176234" r="3" style="fill-opacity:0.3" />
  <circle cx="262.46729714240956" cy="773.3451427416906" r="3" style="fill-opacity:0.3" />
  <circle cx="761.3344937968329" cy="981.5401243400286" r="3" style="fill-opacity:0.3" />
  <circle cx="297.5053323131349" cy="847.0984229608415" r="3" style="fill-opacity:0.3" />
  <circle cx="895.2586998182968" cy="73.00035441739558" r="3" style="fill-opacity:0.3" />
  <circle cx="1008.2821747072478" cy="128.44181017079944" r="3" style="fill-opacity:0.3" />
  <circle cx="219.0548004192866" cy="317.9372198066955" r="3" style="fill-opacity:0.3" />
  <circle cx="336.81054498075326" cy="508.2625286887198" r="3" style="fill-opacity:0.3" />
  <circle cx="657.0721056825195" cy="958.003025217693" r="3" style="fill-opacity:0.3" />
  <circle cx="973.7712247958087" cy="17.92172882710817" r="3" style="fill-opacity:0.3" />
  <circle cx="1046.181032236089" cy="90.33916967673687" r="3" style="fill-opacity:0.3" />
  <circle cx="329.8846053878756" cy="836.0301264922105" r="3" style="fill-opacity:0.3" />
  <circle cx="414.9073470106553" cy="368.2138824516764" r="3" style="fill-opacity:0.3" />
  <circle cx="269.4844323066082" cy="347.26487074914513" r="3" style="fill-opacity:0.3" />
  <circle cx="999.6084596804352" cy="6.963947067812651" r="3" style="fill-opacity:0.3" />
  <circle cx="746.4408060424373" cy="979.1943812172971" r="3" style="fill-opacity:0.3" />
  <circle cx="773.8607371863762" cy="974.4500533315404" r="3" style="fill-opacity:0.3" />
  <circle cx="832.7365404119302" cy="78.35273281489513" r="3" style="fill-opacity:0.3" />
  <circle cx="1016.598414618334" cy="129.89931370061427" r="3" style="fill-opacity:0.3" />
  <circle cx="1044.7156173577002" cy="76.67737577062134" r="3" style="fill-opacity:0.3" />
  <circle cx="1028.6517872324034" cy="157.3380280405313" r="3" style="fill-opacity:0.3" />
  <circle cx="785.5631037559759" cy="842.2730757314631" r="3" style="fill-opacity:0.3" />
  <circle cx="847.1252739402868" cy="24.304654355195154" r="3" style="fill-opacity:0.3" />
  <circle cx="652.4791371142438" cy="931.4314509794117" r="3" style="fill-opacity:0.3" />
  <circle cx="14.33860477375903" cy="262.44435832713634" r="3" style="fill-opacity:0.3" />
  <circle cx="158.97713804027265" cy="272.41394397637396" r="3" style="fill-opacity:0.3" />
  <circle cx="10.38697128699667" cy="316.1120208988011" r="3" style="fill-opacity:0.3" />
  <circle cx="955.7707066415344" cy="120.57854163154308" r="3" style="fill-opacity:0.3" />
  <circle cx="873.8196476711571" cy="952.3059260683285" r="3" style="fill-opacity:0.3" />
  <circle cx="853.5563164867311" cy="932.8368223794482" r="3" style="fill-opacity:0.3" />
  <circle cx="1036.2374935217622" cy="151.1731080648709" r="3" style="fill-opacity:0.3" />
  <circle cx="1012.223148631251" cy="48.58795582249668" r="3" style="fill-opacity:0.3" />
  <circle cx="259.9675641989409" cy="336.7122701734956" r="3" style="fill-opacity:0.3" />
  <circle cx="283.82452994296494" cy="843.7771366655776" r="3" style="fill-opacity:0.3" />
  <circle cx="1020.672986649548" cy="135.70996831866617" r="3" style="fill-opacity:0.3" />
  <circle cx="68.25587797623984" cy="346.5077892429421" r="3" style="fill-opacity:0.3" />
  <circle cx="127.99646769502958" cy="349.64525318882744" r="3" style="fill-opacity:0.3" />
  <circle cx="357.52013731961284" cy="827.8018654720762" r="3" style="fill-opacity:0.3" />
  <circle cx="76.92663346842896" cy="323.27243480696416" r="3" style="fill-opacity:0.3" />
  <circle cx="717.3638890820201" cy="924.5417997984314" r="3" style="fill-opacity:0.3" />
  <circle cx="257.7679752093316" cy="327.64916022673253" r="3" style="fill-opacity:0.3" />
  <circle cx="5.210090466076592" cy="307.7329720010257" r="3" style="fill-opacity:0.3" />
  <circle cx="256.01174022067613" cy="386.9135768891478" r="3" style="fill-opacity:0.3" />
  <circle cx="75.16311750078808" cy="354.04222499794747" r="3" style="fill-opacity:0.3" />
  <circle cx="815.7044448438604" cy="166.85001319351696" r="3" style="fill-opacity:0.3" />
  <circle cx="86.22412934594564" cy="314.92651329301736" r="3" style="fill-opacity:0.3" />
  <circle cx="792.4205942892191" cy="1000.0" r="3" style="fill-opacity:0.3" />
  <circle cx="864.0032641833557" cy="958.8895079274286" r="3" style="fill-opacity:0.3" />
  <circle cx="911.1421030938434" cy="98.57942480320374" r="3" style="fill-opacity:0.3" />
  <circle cx="42.19269702791835" cy="269.0121282376063" r="3" style="fill-opacity:0.3" />
  <circle cx="974.485625025252" cy="130.33299355663095" r="3" style="fill-opacity:0.3" />
  <circle cx="105.150536597675" cy="335.49824700223365" r="3" style="fill-opacity:0.3" />
  <circle cx="909.4453992750939" cy="19.855381485221738" r="3" style="fill-opacity:0.3" />
  <circle cx="999.2627179409154" cy="107.4949312230914" r="3" style="fill-opacity:0.3" />
  <circle cx="984.5512118045866" cy="23.739309619239492" r="3" style="fill-opacity:0.3" />
  <circle cx="326.654653109542" cy="695.1479954469697" r="3" style="fill-opacity:0.3" />
  <circle cx="868.9887443049038" cy="46.8230990946308" r="3" style="fill-opacity:0.3" />
  <circle cx="889.6171458709046" cy="34.391326132589946" r="3" style="fill-opacity:0.3" />
  <circle cx="69.2849579269415" cy="258.83254436890223" r="3" style="fill-opacity:0.3" />
  <circle cx="226.32556508166797" cy="297.27324128391666" r="3" style="fill-opacity:0.3" />
  <circle cx="868.443718503873" cy="115.89354233936429" r="3" style="fill-opacity:0.3" />
  <circle cx="229.1396372689603" cy="321.85811850650066" r="3" style="fill-opacity:0.3" />
  <circle cx="829.1682845164937" cy="871.9051742574719" r="3" style="fill-opacity:0.3" />
  <circle cx="908.3699882027189" cy="11.65144653990304" r="3" style="fill-opacity:0.3" />
  <circle cx="803.785338196585" cy="981.6814182912486" r="3" style="fill-opacity:0.3" />
  <circle cx="346.1326338052746" cy="505.31306813632193" r="3" style="fill-opacity:0.3" />
  <circle cx="257.0385154010515" cy="346.0180073768822" r="3" style="fill-opacity:0.3" />
  <circle cx="124.45246426916309" cy="359.6420282946036" r="3" style="fill-opacity:0.3" />
  <circle cx="1021.2826507820033" cy="162.56957004000625" r="3" style="fill-opacity:0.3" />
  <circle cx="744.276482657878" cy="868.5024631840062" r="3" style="fill-opacity:0.3" />
  <circle cx="822.3737168322161" cy="856.9066625402436" r="3" style="fill-opacity:0.3" />
  <circle cx="1039.3739192678765" cy="68.92495980285068" r="3" style="fill-opacity:0.3" />
  <circle cx="122.9043919458893" cy="336.37633383753627" r="3" style="fill-opacity:0.3" />
  <circle cx="1002.443143847805" cy="170.11930250386263" r="3" style="fill-opacity:0.3" />
  <circle cx="97.89878629048577" cy="363.9685896316188" r="3" style="fill-opacity:0.3" />
  <circle cx="66.70612945636509" cy="243.40756615256436" r="3" style="fill-opacity:0.3" />
  <circle cx="981.878856801791" cy="85.87472679621878" r="3" style="fill-opacity:0.3" />
  <circle cx="58.54876155436365" cy="268.6089404406466" r="3" style="fill-opacity:0.3" />
  <circle cx="984.2308749198002" cy="58.460524355299896" r="3" style="fill-opacity:0.3" />
  <circle cx="874.3745735083622" cy="128.81761424048418" r="3" style="fill-opacity:0.3" />
  <circle cx="841.508077224752" cy="947.6647812832477" r="3" style="fill-opacity:0.3" />
  <circle cx="901.3660007056089" cy="3.7634464912508907" r="3" style="fill-opacity:0.3" />
  <circle cx="999.6292026133722" cy="60.6796705303456" r="3" style="fill-opacity:0.3" />
  <circle cx="1051.5940734437413" cy="105.92133825846251" r="3" style="fill-opacity:0.3" />
  <circle cx="776.4530145156181" cy="895.6005617971834" r="3" style="fill-opacity:0.3" />
  <circle cx="868.5157687671423" cy="135.0120126887509" r="3" style="fill-opacity:0.3" />
  <circle cx="32.36222301244028" cy="277.60571960076857" r="3" style="fill-opacity:0.3" />
  <circle cx="820.1884409901446" cy="959.5799630176091" r="3" style="fill-opacity:0.3" />
  <circle cx="1020.2484112886394" cy="61.71440715159571" r="3" style="fill-opacity:0.3" />
  <circle cx="880.2751784023186" cy="944.2934238173219" r="3" style="fill-opacity:0.3" />
  <circle cx="855.0680624867933" cy="32.18211310476058" r="3" style="fill-opacity:0.3" />
  <circle cx="937.5949473707442" cy="77.00604807035101" r="3" style="fill-opacity:0.3" />
  <circle cx="837.4068693819258" cy="983.2067307546117" r="3" style="fill-opacity:0.3" />
  <circle cx="351.9097763433415" cy="838.8222868740218" r="3" style="fill-opacity:0.3" />
  <circle cx="672.4994427082811" cy="954.6944763254924" r="3" style="fill-opacity:0.3" />
  <circle cx="823.8514543746794" cy="996.9435638442902" r="3" style="fill-opacity:0.3" />
  <circle cx="989.2843457659745" cy="133.74127935557524" r="3" style="fill-opacity:0.3" />
  <circle cx="789.3608676328846" cy="903.7514523849183" r="3" style="fill-opacity:0.3" />
  <circle cx="650.5737304495674" cy="949.6143810348515" r="3" style="fill-opacity:0.3" />
  <circle cx="1001.2599585721026" cy="14.661190146453105" r="3" style="fill-opacity:0.3" />
  <circle cx="541.621694544668" cy="329.16179441290876" r="3" style="fill-opacity:0.3" />
  <circle cx="874.5257716798833" cy="86.48537884651834" r="3" style="fill-opacity:0.3" />
  <circle cx="953.8383138663469" cy="6.998341434704591" r="3" style="fill-opacity:0.3" />
  <circle cx="319.0435419654502" cy="509.91046821950357" r="3" style="fill-opacity:0.3" />
  <circle cx="709.62070543153" cy="921.7374425929974" r="3" style="fill-opacity:0.3" />
  <circle cx="784.2242286256735" cy="993.7702273846057" r="3" style="fill-opacity:0.3" />
  <circle cx="676.7089583873369" cy="939.1263628092157" r="3" style="fill-opacity:0.3" />
  <circle cx="463.1400351561285" cy="876.3768473880045" r="3" style="fill-opacity:0.3" />
  <circle cx="339.2934111959247" cy="516.0964623467837" r="3" style="fill-opacity:0.3" />
  <circle cx="1032.1802858397111" cy="30.530305052356805" r="3" style="fill-opacity:0.3" />
  <circle cx="275.76904336561563" cy="823.7735012688413" r="3" style="fill-opacity:0.3" />
  <circle cx="745.4789441944913" cy="898.3675852350186" r="3" style="fill-opacity:0.3" />
  <circle cx="247.0772194789829" cy="275.9058337643892" r="3" style="fill-opacity:0.3" />
  <circle cx="37.97894829768092" cy="257.22717546904556" r="3" style="fill-opacity:0.3" />
  <circle cx="871.7643425420897" cy="911.7147281206384" r="3" style="fill-opacity:0.3" />
  <circle cx="705.6835946168807" cy="939.079872977346" r="3" style="fill-opacity:0.3" />
  <circle cx="444.173176566115" cy="368.0099192948682" r="3" style="fill-opacity:0.3" />
  <circle cx="1026.0431800815882" cy="97.8824489735241" r="3" style="fill-opacity:0.3" />
  <circle cx="832.7506702254649" cy="47.4568609160051" r="3" style="fill-opacity:0.3" />
  <circle cx="836.4892172193303" cy="58.01819522823771" r="3" style="fill-opacity:0.3" />
  <circle cx="11.7590429671697" cy="293.9847445103313" r="3" style="fill-opacity:0.3" />
  <circle cx="143.75166812117462" cy="268.79111571204277" r="3" style="fill-opacity:0.3" />
  <circle cx="781.1679460295425" cy="914.4551955934667" r="3" style="fill-opacity:0.3" />
  <circle cx="818.4670656526748" cy="71.28445391509591" r="3" style="fill-opacity:0.3" />
  <circle cx="860.1974336103051" cy="978.2935055799624" r="3" style="fill-opacity:0.3" />
  <circle cx="810.5615855758253" cy="107.7343065565191" r="3" style="fill-opacity:0.3" />
  <circle cx="1025.0936408977163" cy="89.62776713324304" r="3" style="fill-opacity:0.3" />
  <circle cx="398.88180750146165" cy="386.1377693732691" r="3" style="fill-opacity:0.3" />
  <circle cx="25.943175747921543" cy="288.9425995857134" r="3" style="fill-opacity:0.3" />
  <circle cx="857.7386365307004" cy="115.09108594638735" r="3" style="fill-opacity:0.3" />
  <circle cx="662.5677355848053" cy="950.5027219864131" r="3" style="fill-opacity:0.3" />
  <circle cx="867.8094876149848" cy="122.98621488640906" r="3" style="fill-opacity:0.3" />
  <circle cx="1006.5597255563305" cy="69.04811055660424" r="3" style="fill-opacity:0.3" />
  <circle cx="832.0811475409549" cy="969.5623029630173" r="3" style="fill-opacity:0.3" />
  <circle cx="862.9657770590774" cy="938.0774021914415" r="3" style="fill-opacity:0.3" />
  <circle cx="840.6951349685725" cy="959.7504482586078" r="3" style="fill-opacity:0.3" />
  <circle cx="813.4462806402191" cy="891.8268780827809" r="3" style="fill-opacity:0.3" />
  <circle cx="417.497777904579" cy="342.5459838832997" r="3" style="fill-opacity:0.3" />
  <circle cx="1046.4581284866854" cy="61.31214847554908" r="3" style="fill-opacity:0.3" />
  <circle cx="827.8184093459973" cy="73.08924594911728" r="3" style="fill-opacity:0.3" />
  <circle cx="857.3202683353297" cy="20.131989227603203" r="3" style="fill-opacity:0.3" />
  <circle cx="920.5986019333043" cy="7.965336694836487" r="3" style="fill-opacity:0.3" />
  <circle cx="106.0996829229684" cy="356.1374686759554" r="3" style="fill-opacity:0.3" />
  <circle cx="824.8271186540113" cy="59.36788694591874" r="3" style="fill-opacity:0.3" />
  <circle cx="312.72150457921197" cy="847.713838867459" r="3" style="fill-opacity:0.3" />
  <circle cx="884.1301424882349" cy="910.2802330032532" r="3" style="fill-opacity:0.3" />
  <circle cx="2.345679999611681" cy="280.58762336614086" r="3" style="fill-opacity:0.3" />
  <circle cx="889.3748568903502" cy="54.9897340585657" r="3" style="fill-opacity:0.3" />
  <circle cx="824.7618386535755" cy="977.5204769802692" r="3" style="fill-opacity:0.3" />
  <circle cx="829.4383878843952" cy="895.9618715806239" r="3" style="fill-opacity:0.3" />
  <circle cx="808.9652178379864" cy="862.9197641587047" r="3" style="fill-opacity:0.3" />
  <circle cx="966.0667180723572" cy="122.46060273931874" r="3" style="fill-opacity:0.3" />
  <circle cx="276.72774924964887" cy="783.1045612403865" r="3" style="fill-opacity:0.3" />
  <circle cx="709.0351104346416" cy="952.5237457965725" r="3" style="fill-opacity:0.3" />
  <circle cx="399.7970108455857" cy="366.663960953947" r="3" style="fill-opacity:0.3" />
  <circle cx="220.20943797162892" cy="326.1422443574487" r="3" style="fill-opacity:0.3" />
  <circle cx="271.8028217303105" cy="337.98356097921913" r="3" style="fill-opacity:0.3" />
  <circle cx="306.9742454836716" cy="836.800587339562" r="3" style="fill-opacity:0.3" />
  <circle cx="843.2205215772075" cy="81.5112371261851" r="3" style="fill-opacity:0.3" />
  <circle cx="798.4025994806096" cy="990.8674171485989" r="3" style="fill-opacity:0.3" />
  <circle cx="38.10848686624883" cy="248.5660116758402" r="3" style="fill-opacity:0.3" />
  <circle cx="369.4157903097608" cy="379.28167635035896" r="3" style="fill-opacity:0.3" />
  <circle cx="226.8992695589183" cy="305.3087772870142" r="3" style="fill-opacity:0.3" />
  <circle cx="432.47803859435686" cy="376.26915382762337" r="3" style="fill-opacity:0.3" />
  <circle cx="786.6472886699341" cy="984.5073648880814" r="3" style="fill-opacity:0.3" />
  <circle cx="839.0792552546754" cy="31.488448324153055" r="3" style="fill-opacity:0.3" />
  <circle cx="244.92021635926676" cy="287.73452278829524" r="3" style="fill-opacity:0.3" />
  <circle cx="680.1572942017322" cy="912.9391405530195" r="3" style="fill-opacity:0.3" />
  <circle cx="841.5046986409782" cy="39.05422924014464" r="3" style="fill-opacity:0.3" />
  <circle cx="262.6599811798043" cy="355.2197590569862" r="3" style="fill-opacity:0.3" />
  <circle cx="315.6682843942709" cy="695.0608776915366" r="3" style="fill-opacity:0.3" />
  <circle cx="442.16635018561607" cy="330.38312385316914" r="3" style="fill-opacity:0.3" />
  <circle cx="679.636403012698" cy="960.053274103846" r="3" style="fill-opacity:0.3" />
  <circle cx="253.28043024055623" cy="282.88750170198057" r="3" style="fill-opacity:0.3" />
  <circle cx="958.1999345654752" cy="60.65108739243736" r="3" style="fill-opacity:0.3" />
  <circle cx="979.8445041302357" cy="124.04754125888113" r="3" style="fill-opacity:0.3" />
  <circle cx="991.9805865703338" cy="117.57224421892522" r="3" style="fill-opacity:0.3" />
  <circle cx="92.96443016526705" cy="326.62437364580626" r="3" style="fill-opacity:0.3" />
  <circle cx="292.01413843896296" cy="856.4617994470548" r="3" style="fill-opacity:0.3" />
  <circle cx="219.3558610431621" cy="291.73043533200195" r="3" style="fill-opacity:0.3" />
  <circle cx="51.47306427141897" cy="258.68741568227716" r="3" style="fill-opacity:0.3" />
  <circle cx="1018.468342879564" cy="50.08657717599274" r="3" style="fill-opacity:0.3" />
  <circle cx="249.0438695222026" cy="308.8686533862065" r="3" style="fill-opacity:0.3" />
  <circle cx="314.80176932329044" cy="817.7575616083185" r="3" style="fill-opacity:0.3" />
  <circle cx="296.4495117885336" cy="764.7911488225335" r="3" style="fill-opacity:0.3" />
  <circle cx="1059.2038750592387" cy="89.53380766926809" r="3" style="fill-opacity:0.3" />
  <circle cx="987.890509720561" cy="13.396909980346559" r="3" style="fill-opacity:0.3" />
  <circle cx="970.8445855305332" cy="144.1622657306083" r="3" style="fill-opacity:0.3" />
  <circle cx="271.9713842509945" cy="378.1846928512085" r="3" style="fill-opacity:0.3" />
  <circle cx="792.619917636588" cy="858.5130619196584" r="3" style="fill-opacity:0.3" />
  <circle cx="924.3981467691013" cy="106.95323683765082" r="3" style="fill-opacity:0.3" />
  <circle cx="281.7192532027316" cy="807.5049319427378" r="3" style="fill-opacity:0.3" />
  <circle cx="674.5897253461076" cy="899.7248112786494" r="3" style="fill-opacity:0.3" />
  <circle cx="414.0151913697945" cy="384.2992418035487" r="3" style="fill-opacity:0.3" />
  <circle cx="380.9080823022309" cy="342.10633231377795" r="3" style="fill-opacity:0.3" />
  <circle cx="920.388396403315" cy="85.39185421113072" r="3" style="fill-opacity:0.3" />
  <circle cx="413.64839241047514" cy="321.91817350370144" r="3" style="fill-opacity:0.3" />
  <circle cx="343.22348984202165" cy="849.0980600968921" r="3" style="fill-opacity:0.3" />
  <circle cx="84.83440522031876" cy="360.66068267750353" r="3" style="fill-opacity:0.3" />
  <circle cx="844.4815190419949" cy="862.5902134173843" r="3" style="fill-opacity:0.3" />
  <circle cx="306.5778773686884" cy="857.4899139701607" r="3" style="fill-opacity:0.3" />
  <circle cx="954.548733128863" cy="47.63106264065624" r="3" style="fill-opacity:0.3" />
  <circle cx="779.1811030553956" cy="857.8003754999937" r="3" style="fill-opacity:0.3" />
  <circle cx="249.016867042584" cy="829.243692198121" r="3" style="fill-opacity:0.3" />
  <circle cx="289.7367896414123" cy="772.9885968145682" r="3" style="fill-opacity:0.3" />
  <circle cx="819.6786415083059" cy="927.4906944317277" r="3" style="fill-opacity:0.3" />
  <circle cx="857.8110272714044" cy="122.14395833213673" r="3" style="fill-opacity:0.3" />
  <circle cx="816.6630852514638" cy="983.7437288561644" r="3" style="fill-opacity:0.3" />
  <circle cx="61.29531444732359" cy="0.0" r="3" style="fill-opacity:0.3" />
  <circle cx="1037.3098926783698" cy="85.34678340029197" r="3" style="fill-opacity:0.3" />
  <circle cx="275.71613841039783" cy="775.8251860691327" r="3" style="fill-opacity:0.3" />
  <circle cx="972.6178705814891" cy="154.58306628145877" r="3" style="fill-opacity:0.3" />
  <circle cx="955.4340268398886" cy="23.508042977416956" r="3" style="fill-opacity:0.3" />
  <circle cx="1019.7841048301735" cy="38.17646337388467" r="3" style="fill-opacity:0.3" />
  <circle cx="706.259885413105" cy="931.2754938108721" r="3" style="fill-opacity:0.3" />
  <circle cx="433.1285338283887" cy="339.70392126190166" r="3" style="fill-opacity:0.3" />
  <circle cx="1.109904055554184" cy="299.83656763138697" r="3" style="fill-opacity:0.3" />
  <circle cx="1033.6867937253955" cy="110.90034519375888" r="3" style="fill-opacity:0.3" />
  <circle cx="1012.0335812719112" cy="166.21451138206905" r="3" style="fill-opacity:0.3" />
  <circle cx="253.76692011341285" cy="837.2551808626769" r="3" style="fill-opacity:0.3" />
  <circle cx="261.0102370564535" cy="815.5460173316526" r="3" style="fill-opacity:0.3" />
  <circle cx="819.9150245148992" cy="900.7201869593995" r="3" style="fill-opacity:0.3" />
  <circle cx="761.5268897379368" cy="907.1471021394445" r="3" style="fill-opacity:0.3" />
  <circle cx="751.3694788135559" cy="988.2678044061954" r="3" style="fill-opacity:0.3" />
  <circle cx="282.94871721896357" cy="834.4067326466397" r="3" style="fill-opacity:0.3" />
  <circle cx="357.1970766153498" cy="515.865136579085" r="3" style="fill-opacity:0.3" />
  <circle cx="850.8836733876446" cy="907.7757960285657" r="3" style="fill-opacity:0.3" />
  <circle cx="59.57333672670023" cy="251.18239927400182" r="3" style="fill-opacity:0.3" />
  <circle cx="1056.6110084421293" cy="98.00833641069443" r="3" style="fill-opacity:0.3" />
  <circle cx="1013.1519710727579" cy="20.085262892228396" r="3" style="fill-opacity:0.3" />
  <circle cx="90.70633143805551" cy="353.17228064046503" r="3" style="fill-opacity:0.3" />
  <circle cx="665.0160400665465" cy="933.864632826619" r="3" style="fill-opacity:0.3" />
  <circle cx="22.221809769216012" cy="320.8833355238063" r="3" style="fill-opacity:0.3" />
  <circle cx="862.3306556907451" cy="904.0257626646783" r="3" style="fill-opacity:0.3" />
  <circle cx="996.8682187153008" cy="22.322417119880587" r="3" style="fill-opacity:0.3" />
  <circle cx="762.6874856453841" cy="992.7452549794968" r="3" style="fill-opacity:0.3" />
  <circle cx="675.3123297721954" cy="921.2272707461719" r="3" style="fill-opacity:0.3" />
  <circle cx="235.09173282725234" cy="274.15891751669966" r="3" style="fill-opacity:0.3" />
  <circle cx="226.84303840107046" cy="377.42070628731057" r="3" style="fill-opacity:0.3" />
  <circle cx="806.690186906048" cy="999.194198771736" r="3" style="fill-opacity:0.3" />
  <circle cx="987.9964243932841" cy="3.5488702396490015" r="3" style="fill-opacity:0.3" />
  <circle cx="219.68947654789685" cy="310.6714604800954" r="3" style="fill-opacity:0.3" />
  <circle cx="875.2628005634396" cy="140.11292028784501" r="3" style="fill-opacity:0.3" />
  <circle cx="928.3988351970136" cy="12.394033759861774" r="3" style="fill-opacity:0.3" />
  <circle cx="39.6773021224595" cy="292.6554174337545" r="3" style="fill-opacity:0.3" />
  <circle cx="922.6273236319032" cy="38.917023420942115" r="3" style="fill-opacity:0.3" />
  <circle cx="862.2456934755339" cy="13.46694880408624" r="3" style="fill-opacity:0.3" />
  <circle cx="825.495253238211" cy="914.2265304902008" r="3" style="fill-opacity:0.3" />
  <circle cx="873.469898774138" cy="965.1537424821448" r="3" style="fill-opacity:0.3" />
  <circle cx="999.2244011342403" cy="136.83180580224186" r="3" style="fill-opacity:0.3" />
  <circle cx="663.8196973022908" cy="942.5950583606185" r="3" style="fill-opacity:0.3" />
  <circle cx="1013.3922695698485" cy="12.485222754204948" r="3" style="fill-opacity:0.3" />
  <circle cx="823.9318594303816" cy="122.1029756533156" r="3" style="fill-opacity:0.3" />
  <circle cx="953.3401168078555" cy="74.88883490602532" r="3" style="fill-opacity:0.3" />
  <circle cx="981.1183611658213" cy="100.46648627080259" r="3" style="fill-opacity:0.3" />
  <circle cx="113.2645329126266" cy="347.4501036730008" r="3" style="fill-opacity:0.3" />
  <circle cx="426.2419848556336" cy="331.0265569785934" r="3" style="fill-opacity:0.3" />
  <circle cx="868.1818127849731" cy="25.944569659911338" r="3" style="fill-opacity:0.3" />
  <circle cx="403.25603896095504" cy="347.1727188476738" r="3" style="fill-opacity:0.3" />
  <circle cx="132.90589039580902" cy="277.0003044137974" r="3" style="fill-opacity:0.3" />
</svg>