<svg viewBox="-5 -5 1510 1010" height="1000" width="1500" xmlns="http://www.w3.org/2000/svg">
  <circle cx="837.300101890649" cy="120.38785231230321" r="11.195219123505975"/>
  <text x="847.300101890649" y="130.3878523123032" style="font-size:11pt">Divesh Srivastava</text>
  <circle cx="759.2715028837887" cy="910.82025725468" r="15.0"/>
  <text x="769.2715028837887" y="920.82025725468" style="font-size:11pt">Yoshua Bengio</text>
  <circle cx="1546.254718692968" cy="875.8506322581811" r="6.772908366533865"/>
  <text x="1556.254718692968" y="885.8506322581811" style="font-size:11pt">Donald A. Norman</text>
  <circle cx="552.0659876936567" cy="422.3488992279206" r="6.274900398406374"/>
  <text x="562.0659876936567" y="432.3488992279206" style="font-size:11pt">Richard Socher</text>
  <circle cx="684.1347676132472" cy="742.3394704982195" r="9.9601593625498"/>
  <text x="694.1347676132472" y="752.3394704982195" style="font-size:11pt">Geoffrey Hinton</text>
  <circle cx="211.23980256677655" cy="459.09937191426167" r="7.151394422310757"/>
  <text x="221.23980256677655" y="469.09937191426167" style="font-size:11pt">Michael S. Bernstein</text>
  <circle cx="309.3988589072842" cy="319.65380926853305" r="5.298804780876494"/>
  <text x="319.3988589072842" y="329.65380926853305" style="font-size:11pt">Samuel Madden</text>
  <circle cx="627.9974133375789" cy="390.59108867824256" r="11.394422310756973"/>
  <text x="637.9974133375789" y="400.59108867824256" style="font-size:11pt">Christopher D. Manning</text>
  <circle cx="878.7276153505751" cy="821.8569030204474" r="5.418326693227091"/>
  <text x="888.7276153505751" y="831.8569030204474" style="font-size:11pt">Ian J. Goodfellow</text>
  <circle cx="962.1404911722091" cy="943.7385871497088" r="5.398406374501992"/>
  <text x="972.1404911722091" y="953.7385871497088" style="font-size:11pt">Pascal Vincent</text>
  <circle cx="1687.8475393987908" cy="313.7366031681587" r="6.175298804780876"/>
  <text x="1697.8475393987908" y="323.7366031681587" style="font-size:11pt">Shimei Pan</text>
  <circle cx="826.4310952079883" cy="363.99510523934947" r="5.039840637450199"/>
  <text x="836.4310952079883" y="373.99510523934947" style="font-size:11pt">Daniel Jurafsky</text>
  <circle cx="484.38337885896794" cy="549.2268289162993" r="8.824701195219124"/>
  <text x="494.38337885896794" y="559.2268289162993" style="font-size:11pt">Li Fei-Fei</text>
  <circle cx="838.2549138207497" cy="901.3539436441462" r="6.075697211155378"/>
  <text x="848.2549138207497" y="911.3539436441462" style="font-size:11pt">Hugo Larochelle</text>
  <circle cx="394.29442955386" cy="402.0270582705805" r="11.832669322709162"/>
  <text x="404.29442955386" y="412.0270582705805" style="font-size:11pt">Michael Stonebraker</text>
  <circle cx="0.0" cy="730.8591152689601" r="7.490039840637451"/>
  <text x="10.0" y="740.8591152689601" style="font-size:11pt">Wai-Tat Fu</text>
  <circle cx="815.2691450938117" cy="991.6440015199652" r="5.338645418326693"/>
  <text x="825.2691450938117" y="1001.6440015199652" style="font-size:11pt">Kyunghyun Cho</text>
  <circle cx="470.5922131030595" cy="270.25752421971896" r="5.0"/>
  <text x="480.5922131030595" y="280.25752421971896" style="font-size:11pt">Dan Klein</text>
  <circle cx="816.4437541950516" cy="540.2391927297374" r="9.641434262948206"/>
  <text x="826.4437541950516" y="550.2391927297374" style="font-size:11pt">Andrew Y. Ng</text>
  <circle cx="891.8714584594362" cy="203.24704427781063" r="5.7370517928286855"/>
  <text x="901.8714584594362" y="213.24704427781063" style="font-size:11pt">Nick Koudas</text>
  <circle cx="1092.9841103256476" cy="516.1257601037959" r="5.0"/>
  <text x="1102.9841103256476" y="526.1257601037959" style="font-size:11pt">Adam Coates</text>
  <circle cx="911.0750929386109" cy="991.3727696555542" r="6.673306772908367"/>
  <text x="921.0750929386109" y="1001.3727696555542" style="font-size:11pt">Aaron C. Courville</text>
  <circle cx="977.7260257484052" cy="0.0" r="5.039840637450199"/>
  <text x="987.7260257484052" y="10.0" style="font-size:11pt">Graham Cormode</text>
  <circle cx="645.7019578323445" cy="288.83306337640875" r="5.0199203187251"/>
  <text x="655.7019578323445" y="298.83306337640875" style="font-size:11pt">H. V. Jagadish</text>
  <line x1="1546.254718692968" y1="875.8506322581811" x2="1546.254718692968" y2="875.8506322581811" stroke-width="1.0" stroke="black" />
  <line x1="759.2715028837887" y1="910.82025725468" x2="684.1347676132472" y2="742.3394704982195" stroke-width="1.0597014925373134" stroke="black" />
  <line x1="211.23980256677655" y1="459.09937191426167" x2="309.3988589072842" y2="319.65380926853305" stroke-width="1.2388059701492538" stroke="black" />
  <line x1="394.29442955386" y1="402.0270582705805" x2="309.3988589072842" y2="319.65380926853305" stroke-width="3.388059701492537" stroke="black" />
  <line x1="837.300101890649" y1="120.38785231230321" x2="977.7260257484052" y2="0.0" stroke-width="2.91044776119403" stroke="black" />
  <line x1="837.300101890649" y1="120.38785231230321" x2="645.7019578323445" y2="288.83306337640875" stroke-width="2.731343283582089" stroke="black" />
  <line x1="309.3988589072842" y1="319.65380926853305" x2="645.7019578323445" y2="288.83306337640875" stroke-width="1.0" stroke="black" />
  <line x1="394.29442955386" y1="402.0270582705805" x2="645.7019578323445" y2="288.83306337640875" stroke-width="1.0597014925373134" stroke="black" />
  <line x1="891.8714584594362" y1="203.24704427781063" x2="645.7019578323445" y2="288.83306337640875" stroke-width="1.4776119402985075" stroke="black" />
  <line x1="759.2715028837887" y1="910.82025725468" x2="911.0750929386109" y2="991.3727696555542" stroke-width="4.701492537313433" stroke="black" />
  <line x1="627.9974133375789" y1="390.59108867824256" x2="826.4310952079883" y2="363.99510523934947" stroke-width="2.253731343283582" stroke="black" />
  <line x1="816.4437541950516" y1="540.2391927297374" x2="826.4310952079883" y2="363.99510523934947" stroke-width="1.5970149253731343" stroke="black" />
  <line x1="552.0659876936567" y1="422.3488992279206" x2="470.5922131030595" y2="270.25752421971896" stroke-width="1.0" stroke="black" />
  <line x1="627.9974133375789" y1="390.59108867824256" x2="470.5922131030595" y2="270.25752421971896" stroke-width="2.731343283582089" stroke="black" />
  <line x1="484.38337885896794" y1="549.2268289162993" x2="211.23980256677655" y2="459.09937191426167" stroke-width="1.537313432835821" stroke="black" />
  <line x1="837.300101890649" y1="120.38785231230321" x2="891.8714584594362" y2="203.24704427781063" stroke-width="5.0" stroke="black" />
  <line x1="891.8714584594362" y1="203.24704427781063" x2="891.8714584594362" y2="203.24704427781063" stroke-width="1.0" stroke="black" />
  <line x1="759.2715028837887" y1="910.82025725468" x2="962.1404911722091" y2="943.7385871497088" stroke-width="3.925373134328358" stroke="black" />
  <line x1="878.7276153505751" y1="821.8569030204474" x2="962.1404911722091" y2="943.7385871497088" stroke-width="1.0597014925373134" stroke="black" />
  <line x1="838.2549138207497" y1="901.3539436441462" x2="962.1404911722091" y2="943.7385871497088" stroke-width="1.2985074626865671" stroke="black" />
  <line x1="911.0750929386109" y1="991.3727696555542" x2="962.1404911722091" y2="943.7385871497088" stroke-width="1.4776119402985075" stroke="black" />
  <line x1="627.9974133375789" y1="390.59108867824256" x2="816.4437541950516" y2="540.2391927297374" stroke-width="2.1940298507462686" stroke="black" />
  <line x1="684.1347676132472" y1="742.3394704982195" x2="484.38337885896794" y2="549.2268289162993" stroke-width="1.0" stroke="black" />
  <line x1="627.9974133375789" y1="390.59108867824256" x2="484.38337885896794" y2="549.2268289162993" stroke-width="1.0" stroke="black" />
  <line x1="759.2715028837887" y1="910.82025725468" x2="838.2549138207497" y2="901.3539436441462" stroke-width="2.373134328358209" stroke="black" />
  <line x1="684.1347676132472" y1="742.3394704982195" x2="838.2549138207497" y2="901.3539436441462" stroke-width="1.0597014925373134" stroke="black" />
  <line x1="911.0750929386109" y1="991.3727696555542" x2="838.2549138207497" y2="901.3539436441462" stroke-width="1.5970149253731343" stroke="black" />
  <line x1="627.9974133375789" y1="390.59108867824256" x2="552.0659876936567" y2="422.3488992279206" stroke-width="2.432835820895522" stroke="black" />
  <line x1="484.38337885896794" y1="549.2268289162993" x2="552.0659876936567" y2="422.3488992279206" stroke-width="1.1194029850746268" stroke="black" />
  <line x1="816.4437541950516" y1="540.2391927297374" x2="552.0659876936567" y2="422.3488992279206" stroke-width="1.716417910447761" stroke="black" />
  <line x1="759.2715028837887" y1="910.82025725468" x2="815.2691450938117" y2="991.6440015199652" stroke-width="3.5074626865671643" stroke="black" />
  <line x1="878.7276153505751" y1="821.8569030204474" x2="815.2691450938117" y2="991.6440015199652" stroke-width="1.0" stroke="black" />
  <line x1="962.1404911722091" y1="943.7385871497088" x2="815.2691450938117" y2="991.6440015199652" stroke-width="1.0" stroke="black" />
  <line x1="838.2549138207497" y1="901.3539436441462" x2="815.2691450938117" y2="991.6440015199652" stroke-width="1.0597014925373134" stroke="black" />
  <line x1="911.0750929386109" y1="991.3727696555542" x2="815.2691450938117" y2="991.6440015199652" stroke-width="1.5970149253731343" stroke="black" />
  <line x1="759.2715028837887" y1="910.82025725468" x2="878.7276153505751" y2="821.8569030204474" stroke-width="2.074626865671642" stroke="black" />
  <line x1="816.4437541950516" y1="540.2391927297374" x2="878.7276153505751" y2="821.8569030204474" stroke-width="1.0" stroke="black" />
  <line x1="911.0750929386109" y1="991.3727696555542" x2="878.7276153505751" y2="821.8569030204474" stroke-width="1.8955223880597014" stroke="black" />
  <line x1="816.4437541950516" y1="540.2391927297374" x2="1092.9841103256476" y2="516.1257601037959" stroke-width="2.791044776119403" stroke="black" />
  <circle cx="374.17807744399454" cy="363.72560078157613" r="3" style="fill-opacity:0.3" />
  <circle cx="800.6835152360046" cy="848.3858936762633" r="3" style="fill-opacity:0.3" />
  <circle cx="800.6835152360046" cy="848.3858936762633" r="3" style="fill-opacity:0.3" />
  <circle cx="924.5677472148225" cy="974.470057747489" r="3" style="fill-opacity:0.3" />
  <circle cx="869.9567508871601" cy="1000.3939087701033" r="3" style="fill-opacity:0.3" />
  <circle cx="840.9632164185913" cy="932.3200817260495" r="3" style="fill-opacity:0.3" />
  <circle cx="696.0299113813013" cy="373.4557331741079" r="3" style="fill-opacity:0.3" />
  <circle cx="846.8998594816806" cy="159.7956329107801" r="3" style="fill-opacity:0.3" />
  <circle cx="990.2301864771528" cy="494.32734803640005" r="3" style="fill-opacity:0.3" />
  <circle cx="907.5924377756382" cy="34.238750308764104" r="3" style="fill-opacity:0.3" />
  <circle cx="827.6488027145411" cy="119.27728998344206" r="3" style="fill-opacity:0.3" />
  <circle cx="707.0528673774713" cy="302.11023008034556" r="3" style="fill-opacity:0.3" />
  <circle cx="848.5205611344046" cy="930.0317155652707" r="3" style="fill-opacity:0.3" />
  <circle cx="895.5142379694531" cy="981.4356431542645" r="3" style="fill-opacity:0.3" />
  <circle cx="890.009076677392" cy="156.04774753343924" r="3" style="fill-opacity:0.3" />
  <circle cx="852.2800536448862" cy="190.13774505066715" r="3" style="fill-opacity:0.3" />
  <circle cx="863.562585989212" cy="132.02526096992673" r="3" style="fill-opacity:0.3" />
  <circle cx="888.9917874362967" cy="177.95325333820475" r="3" style="fill-opacity:0.3" />
  <circle cx="584.7259590149966" cy="403.92840980576057" r="3" style="fill-opacity:0.3" />
  <circle cx="584.7259590149966" cy="403.92840980576057" r="3" style="fill-opacity:0.3" />
  <circle cx="584.7259590149966" cy="403.92840980576057" r="3" style="fill-opacity:0.3" />
  <circle cx="956.2841482646107" cy="517.4605364716101" r="3" style="fill-opacity:0.3" />
  <circle cx="349.8386914876948" cy="385.93253285279724" r="3" style="fill-opacity:0.3" />
  <circle cx="869.6312150131373" cy="131.42945851634175" r="3" style="fill-opacity:0.3" />
  <circle cx="628.5667635578448" cy="273.22526039160164" r="3" style="fill-opacity:0.3" />
  <circle cx="824.1127143330403" cy="916.7146139367253" r="3" style="fill-opacity:0.3" />
  <circle cx="765.2214906260774" cy="394.33681722379725" r="3" style="fill-opacity:0.3" />
  <circle cx="448.79081759639274" cy="327.0491327630722" r="3" style="fill-opacity:0.3" />
  <circle cx="278.81524339379376" cy="470.37260913532543" r="3" style="fill-opacity:0.3" />
  <circle cx="859.997363927579" cy="176.61334537977646" r="3" style="fill-opacity:0.3" />
  <circle cx="944.6326100543905" cy="952.2404203846327" r="3" style="fill-opacity:0.3" />
  <circle cx="894.9773143282941" cy="951.2632481608446" r="3" style="fill-opacity:0.3" />
  <circle cx="785.3552246107546" cy="907.3921791931381" r="3" style="fill-opacity:0.3" />
  <circle cx="379.1196837128654" cy="367.67134581373836" r="3" style="fill-opacity:0.3" />
  <circle cx="736.3016659785972" cy="200.25409164202543" r="3" style="fill-opacity:0.3" />
  <circle cx="825.3804590225285" cy="927.2813205072579" r="3" style="fill-opacity:0.3" />
  <circle cx="826.5002757446342" cy="396.67033000237916" r="3" style="fill-opacity:0.3" />
  <circle cx="697.4332231867047" cy="428.652512014838" r="3" style="fill-opacity:0.3" />
  <circle cx="837.7263866813354" cy="904.9909700445477" r="3" style="fill-opacity:0.3" />
  <circle cx="751.4102032793992" cy="935.2083156286845" r="3" style="fill-opacity:0.3" />
  <circle cx="776.6192933121914" cy="936.0164674060813" r="3" style="fill-opacity:0.3" />
  <circle cx="836.6479940397115" cy="95.24367169229612" r="3" style="fill-opacity:0.3" />
  <circle cx="776.2969680146949" cy="168.1428287878953" r="3" style="fill-opacity:0.3" />
  <circle cx="851.5551290384925" cy="990.9542638456843" r="3" style="fill-opacity:0.3" />
  <circle cx="948.8095221632378" cy="978.4841288405921" r="3" style="fill-opacity:0.3" />
  <circle cx="948.8095221632378" cy="978.4841288405921" r="3" style="fill-opacity:0.3" />
  <circle cx="641.3588954714254" cy="367.6764362562645" r="3" style="fill-opacity:0.3" />
  <circle cx="869.9043804864335" cy="135.26825096670245" r="3" style="fill-opacity:0.3" />
  <circle cx="813.5027260751307" cy="901.3201877460157" r="3" style="fill-opacity:0.3" />
  <circle cx="897.7369091195184" cy="958.8104420824899" r="3" style="fill-opacity:0.3" />
  <circle cx="796.0253357539364" cy="967.4221825596607" r="3" style="fill-opacity:0.3" />
  <circle cx="982.0898750150055" cy="538.4009498406205" r="3" style="fill-opacity:0.3" />
  <circle cx="920.1268360115479" cy="511.73254900137033" r="3" style="fill-opacity:0.3" />
  <circle cx="1054.6589669100665" cy="535.7980409089578" r="3" style="fill-opacity:0.3" />
  <circle cx="363.2366974021951" cy="396.2794638915914" r="3" style="fill-opacity:0.3" />
  <circle cx="348.1735582925072" cy="342.9326798727713" r="3" style="fill-opacity:0.3" />
  <circle cx="332.6024492061102" cy="317.03741236196277" r="3" style="fill-opacity:0.3" />
  <circle cx="957.9244574784019" cy="46.04882821074359" r="3" style="fill-opacity:0.3" />
  <circle cx="901.6076989406018" cy="26.82229196021147" r="3" style="fill-opacity:0.3" />
  <circle cx="865.3478061887038" cy="117.88960853532102" r="3" style="fill-opacity:0.3" />
  <circle cx="775.6384227438381" cy="936.8802002257892" r="3" style="fill-opacity:0.3" />
  <circle cx="965.3401153905858" cy="947.6225399844323" r="3" style="fill-opacity:0.3" />
  <circle cx="965.3401153905858" cy="947.6225399844323" r="3" style="fill-opacity:0.3" />
  <circle cx="561.3223993804716" cy="463.3897394979446" r="3" style="fill-opacity:0.3" />
  <circle cx="813.0294679502763" cy="902.1117396652693" r="3" style="fill-opacity:0.3" />
  <circle cx="814.4173858258067" cy="958.8367854689411" r="3" style="fill-opacity:0.3" />
  <circle cx="782.6706242129936" cy="956.1558635098444" r="3" style="fill-opacity:0.3" />
  <circle cx="882.6585128936325" cy="546.2259787216387" r="3" style="fill-opacity:0.3" />
  <circle cx="901.8384804903537" cy="508.90573220852366" r="3" style="fill-opacity:0.3" />
  <circle cx="267.3555763992805" cy="354.33728770015773" r="3" style="fill-opacity:0.3" />
  <circle cx="940.6565141424591" cy="8.139041130670702" r="3" style="fill-opacity:0.3" />
  <circle cx="925.2295100421767" cy="979.2115396104772" r="3" style="fill-opacity:0.3" />
  <circle cx="873.4686861089376" cy="965.9406293414968" r="3" style="fill-opacity:0.3" />
  <circle cx="873.4686861089376" cy="965.9406293414968" r="3" style="fill-opacity:0.3" />
  <circle cx="513.2458246677287" cy="318.93518409370273" r="3" style="fill-opacity:0.3" />
  <circle cx="834.6690832264156" cy="157.06198784444632" r="3" style="fill-opacity:0.3" />
  <circle cx="887.946228692372" cy="159.11144168612043" r="3" style="fill-opacity:0.3" />
  <circle cx="891.3159137554904" cy="918.0441853297943" r="3" style="fill-opacity:0.3" />
  <circle cx="769.1180779951533" cy="917.0863503014259" r="3" style="fill-opacity:0.3" />
  <circle cx="755.3702038225085" cy="912.3500680046504" r="3" style="fill-opacity:0.3" />
  <circle cx="977.5296405897141" cy="535.1921618731495" r="3" style="fill-opacity:0.3" />
  <circle cx="386.3289755189262" cy="388.6246233068984" r="3" style="fill-opacity:0.3" />
  <circle cx="708.4328043045226" cy="298.18525662498087" r="3" style="fill-opacity:0.3" />
  <circle cx="850.9971208341894" cy="964.2157070937192" r="3" style="fill-opacity:0.3" />
  <circle cx="938.3639582461497" cy="957.470619580012" r="3" style="fill-opacity:0.3" />
  <circle cx="938.3639582461497" cy="957.470619580012" r="3" style="fill-opacity:0.3" />
  <circle cx="938.3639582461497" cy="957.470619580012" r="3" style="fill-opacity:0.3" />
  <circle cx="541.979036913668" cy="356.4348002754997" r="3" style="fill-opacity:0.3" />
  <circle cx="862.9139965225647" cy="118.00456333031904" r="3" style="fill-opacity:0.3" />
  <circle cx="890.2333228529774" cy="178.72429600611395" r="3" style="fill-opacity:0.3" />
  <circle cx="905.4189149415736" cy="918.8745760373054" r="3" style="fill-opacity:0.3" />
  <circle cx="764.8952034800332" cy="903.9202241441769" r="3" style="fill-opacity:0.3" />
  <circle cx="694.3973500235281" cy="477.8010665770363" r="3" style="fill-opacity:0.3" />
  <circle cx="694.3973500235281" cy="477.8010665770363" r="3" style="fill-opacity:0.3" />
  <circle cx="694.3973500235281" cy="477.8010665770363" r="3" style="fill-opacity:0.3" />
  <circle cx="777.9431000420738" cy="499.10901236444556" r="3" style="fill-opacity:0.3" />
  <circle cx="602.391268871963" cy="472.42819657689455" r="3" style="fill-opacity:0.3" />
  <circle cx="602.391268871963" cy="472.42819657689455" r="3" style="fill-opacity:0.3" />
  <circle cx="843.4700970154692" cy="985.4819845708773" r="3" style="fill-opacity:0.3" />
  <circle cx="843.4700970154692" cy="985.4819845708773" r="3" style="fill-opacity:0.3" />
  <circle cx="843.4700970154692" cy="985.4819845708773" r="3" style="fill-opacity:0.3" />
  <circle cx="812.6892189907519" cy="961.8502167637223" r="3" style="fill-opacity:0.3" />
  <circle cx="330.2677522321902" cy="358.6100700983974" r="3" style="fill-opacity:0.3" />
  <circle cx="866.5074794211224" cy="112.59028851298946" r="3" style="fill-opacity:0.3" />
  <circle cx="778.5438235620421" cy="161.5275863794942" r="3" style="fill-opacity:0.3" />
  <circle cx="729.9320213544759" cy="161.43642075330155" r="3" style="fill-opacity:0.3" />
  <circle cx="867.0321781061227" cy="949.1661214926704" r="3" style="fill-opacity:0.3" />
  <circle cx="867.0321781061227" cy="949.1661214926704" r="3" style="fill-opacity:0.3" />
  <circle cx="867.0321781061227" cy="949.1661214926704" r="3" style="fill-opacity:0.3" />
  <circle cx="474.0017075720385" cy="299.2747192903055" r="3" style="fill-opacity:0.3" />
  <circle cx="501.9169581564556" cy="277.0567570467704" r="3" style="fill-opacity:0.3" />
  <circle cx="502.57259896363985" cy="319.2234503708864" r="3" style="fill-opacity:0.3" />
  <circle cx="837.0263659403647" cy="162.25702788160106" r="3" style="fill-opacity:0.3" />
  <circle cx="625.499649609449" cy="465.19475564702964" r="3" style="fill-opacity:0.3" />
  <circle cx="625.499649609449" cy="465.19475564702964" r="3" style="fill-opacity:0.3" />
  <circle cx="625.499649609449" cy="465.19475564702964" r="3" style="fill-opacity:0.3" />
  <circle cx="800.2421778989734" cy="944.0005161621885" r="3" style="fill-opacity:0.3" />
  <circle cx="767.1854490215111" cy="956.2071485328368" r="3" style="fill-opacity:0.3" />
  <circle cx="890.0757323258184" cy="990.7127640693187" r="3" style="fill-opacity:0.3" />
  <circle cx="809.1125613901788" cy="850.2275238857527" r="3" style="fill-opacity:0.3" />
  <circle cx="1056.2119000794246" cy="528.4161960571531" r="3" style="fill-opacity:0.3" />
  <circle cx="1546.254718692968" cy="875.8506322581811" r="3" style="fill-opacity:0.3" />
  <circle cx="876.5375380187425" cy="833.1782720037585" r="3" style="fill-opacity:0.3" />
  <circle cx="876.5375380187425" cy="833.1782720037585" r="3" style="fill-opacity:0.3" />
  <circle cx="890.0920319727476" cy="876.7142161549579" r="3" style="fill-opacity:0.3" />
  <circle cx="906.5430251096544" cy="988.3768875858958" r="3" style="fill-opacity:0.3" />
  <circle cx="906.5430251096544" cy="988.3768875858958" r="3" style="fill-opacity:0.3" />
  <circle cx="906.5430251096544" cy="988.3768875858958" r="3" style="fill-opacity:0.3" />
  <circle cx="778.9370878748941" cy="395.884517570081" r="3" style="fill-opacity:0.3" />
  <circle cx="890.7779641054078" cy="170.12450812544105" r="3" style="fill-opacity:0.3" />
  <circle cx="900.7051759841971" cy="170.6277992362498" r="3" style="fill-opacity:0.3" />
  <circle cx="793.9687372549237" cy="916.5074712498595" r="3" style="fill-opacity:0.3" />
  <circle cx="793.9687372549237" cy="916.5074712498595" r="3" style="fill-opacity:0.3" />
  <circle cx="793.9687372549237" cy="916.5074712498595" r="3" style="fill-opacity:0.3" />
  <circle cx="925.4578439071424" cy="960.0366424595749" r="3" style="fill-opacity:0.3" />
  <circle cx="881.0515807645216" cy="982.3631026246188" r="3" style="fill-opacity:0.3" />
  <circle cx="592.3260530176503" cy="398.47056776833034" r="3" style="fill-opacity:0.3" />
  <circle cx="885.9929615583536" cy="560.3849085384454" r="3" style="fill-opacity:0.3" />
  <circle cx="880.0736239906433" cy="132.80334341785576" r="3" style="fill-opacity:0.3" />
  <circle cx="876.4181473370016" cy="71.31495104056272" r="3" style="fill-opacity:0.3" />
  <circle cx="822.3597912209921" cy="181.95318651647645" r="3" style="fill-opacity:0.3" />
  <circle cx="857.3871799319587" cy="180.88843992310004" r="3" style="fill-opacity:0.3" />
  <circle cx="857.3871799319587" cy="180.88843992310004" r="3" style="fill-opacity:0.3" />
  <circle cx="793.927888568757" cy="915.7410745612112" r="3" style="fill-opacity:0.3" />
  <circle cx="271.5433727234703" cy="455.12015450848554" r="3" style="fill-opacity:0.3" />
  <circle cx="848.0224852671967" cy="174.88324701952885" r="3" style="fill-opacity:0.3" />
  <circle cx="894.286885468126" cy="911.7096991404073" r="3" style="fill-opacity:0.3" />
  <circle cx="786.6055960689937" cy="939.1969471811074" r="3" style="fill-opacity:0.3" />
  <circle cx="1050.1940486318335" cy="537.567455291924" r="3" style="fill-opacity:0.3" />
  <circle cx="359.29837291663824" cy="363.2911816488973" r="3" style="fill-opacity:0.3" />
  <circle cx="357.48380030080517" cy="366.9409819951745" r="3" style="fill-opacity:0.3" />
  <circle cx="374.88162580717795" cy="392.36562026476037" r="3" style="fill-opacity:0.3" />
  <circle cx="861.639590625031" cy="53.56957786803397" r="3" style="fill-opacity:0.3" />
  <circle cx="908.7635222130036" cy="982.060545358055" r="3" style="fill-opacity:0.3" />
  <circle cx="889.8873786761288" cy="971.1764915423277" r="3" style="fill-opacity:0.3" />
  <circle cx="834.503587764139" cy="943.1599366930783" r="3" style="fill-opacity:0.3" />
  <circle cx="655.5408436964065" cy="395.438355159903" r="3" style="fill-opacity:0.3" />
  <circle cx="679.0088518265421" cy="364.7873153519809" r="3" style="fill-opacity:0.3" />
  <circle cx="860.3280255963095" cy="538.0689520030164" r="3" style="fill-opacity:0.3" />
  <circle cx="878.5531243997411" cy="203.39390239132211" r="3" style="fill-opacity:0.3" />
  <circle cx="875.9594735340456" cy="137.385104566631" r="3" style="fill-opacity:0.3" />
  <circle cx="849.6310053473952" cy="180.3708050163815" r="3" style="fill-opacity:0.3" />
  <circle cx="900.584690489732" cy="171.114538352563" r="3" style="fill-opacity:0.3" />
  <circle cx="872.9943416725897" cy="186.72424772718622" r="3" style="fill-opacity:0.3" />
  <circle cx="783.1863244435971" cy="965.8199886987977" r="3" style="fill-opacity:0.3" />
  <circle cx="1078.6581273896707" cy="532.1206273431893" r="3" style="fill-opacity:0.3" />
  <circle cx="856.1597554758672" cy="112.99254632971694" r="3" style="fill-opacity:0.3" />
  <circle cx="957.3359161024265" cy="49.49975109618044" r="3" style="fill-opacity:0.3" />
  <circle cx="829.8957092714197" cy="156.56173439599056" r="3" style="fill-opacity:0.3" />
  <circle cx="848.0224852671967" cy="174.88324701952885" r="3" style="fill-opacity:0.3" />
  <circle cx="848.0224852671967" cy="174.88324701952885" r="3" style="fill-opacity:0.3" />
  <circle cx="807.1400712444699" cy="242.57456803316725" r="3" style="fill-opacity:0.3" />
  <circle cx="807.1400712444699" cy="242.57456803316725" r="3" style="fill-opacity:0.3" />
  <circle cx="868.8749047348493" cy="192.6519418760618" r="3" style="fill-opacity:0.3" />
  <circle cx="922.1241096828637" cy="926.1829518313426" r="3" style="fill-opacity:0.3" />
  <circle cx="922.1241096828637" cy="926.1829518313426" r="3" style="fill-opacity:0.3" />
  <circle cx="922.1241096828637" cy="926.1829518313426" r="3" style="fill-opacity:0.3" />
  <circle cx="810.9802044814627" cy="359.9311193942447" r="3" style="fill-opacity:0.3" />
  <circle cx="833.6103008420323" cy="483.42700256723225" r="3" style="fill-opacity:0.3" />
  <circle cx="892.4052863935491" cy="173.76192444823812" r="3" style="fill-opacity:0.3" />
  <circle cx="763.8818787562234" cy="934.8573983601799" r="3" style="fill-opacity:0.3" />
  <circle cx="803.5821562882456" cy="895.0848158027646" r="3" style="fill-opacity:0.3" />
  <circle cx="585.8279082403519" cy="408.9122337991921" r="3" style="fill-opacity:0.3" />
  <circle cx="809.8348054681276" cy="990.3418952036657" r="3" style="fill-opacity:0.3" />
  <circle cx="904.6827676553527" cy="981.7767770699761" r="3" style="fill-opacity:0.3" />
  <circle cx="956.5092859516803" cy="1.1908768066763047" r="3" style="fill-opacity:0.3" />
  <circle cx="950.3637403925986" cy="32.247162291331065" r="3" style="fill-opacity:0.3" />
  <circle cx="845.9105387063344" cy="938.4470953976949" r="3" style="fill-opacity:0.3" />
  <circle cx="857.4301670954037" cy="846.4722930063341" r="3" style="fill-opacity:0.3" />
  <circle cx="857.4301670954037" cy="846.4722930063341" r="3" style="fill-opacity:0.3" />
  <circle cx="791.6930937080937" cy="365.1949623610606" r="3" style="fill-opacity:0.3" />
  <circle cx="636.3440181693063" cy="369.9557526960093" r="3" style="fill-opacity:0.3" />
  <circle cx="614.6143280098357" cy="725.1028763846315" r="3" style="fill-opacity:0.3" />
  <circle cx="809.4427273129122" cy="901.5198717882578" r="3" style="fill-opacity:0.3" />
  <circle cx="791.3985045707747" cy="915.576176505076" r="3" style="fill-opacity:0.3" />
  <circle cx="957.3434997688266" cy="500.15487058284094" r="3" style="fill-opacity:0.3" />
  <circle cx="836.5063689080052" cy="162.06136225189707" r="3" style="fill-opacity:0.3" />
  <circle cx="760.3991510679092" cy="269.46547242210954" r="3" style="fill-opacity:0.3" />
  <circle cx="760.3991510679092" cy="269.46547242210954" r="3" style="fill-opacity:0.3" />
  <circle cx="834.3479169873895" cy="132.06068893664687" r="3" style="fill-opacity:0.3" />
  <circle cx="847.7955080022286" cy="143.30742477233338" r="3" style="fill-opacity:0.3" />
  <circle cx="836.2297113149737" cy="154.1880448792598" r="3" style="fill-opacity:0.3" />
  <circle cx="897.3466654533847" cy="941.3028328337213" r="3" style="fill-opacity:0.3" />
  <circle cx="572.4757842710849" cy="458.0368177092216" r="3" style="fill-opacity:0.3" />
  <circle cx="572.4757842710849" cy="458.0368177092216" r="3" style="fill-opacity:0.3" />
  <circle cx="572.4757842710849" cy="458.0368177092216" r="3" style="fill-opacity:0.3" />
  <circle cx="557.0112320961713" cy="415.52823026937716" r="3" style="fill-opacity:0.3" />
  <circle cx="998.6810890359639" cy="507.09124864424325" r="3" style="fill-opacity:0.3" />
  <circle cx="380.43028079039186" cy="397.8968580009682" r="3" style="fill-opacity:0.3" />
  <circle cx="319.9866368254097" cy="316.8522427752543" r="3" style="fill-opacity:0.3" />
  <circle cx="853.3764847782746" cy="969.74767014672" r="3" style="fill-opacity:0.3" />
  <circle cx="936.5710267615514" cy="953.3630203920522" r="3" style="fill-opacity:0.3" />
  <circle cx="936.5710267615514" cy="953.3630203920522" r="3" style="fill-opacity:0.3" />
  <circle cx="822.5480675304863" cy="918.1351107059689" r="3" style="fill-opacity:0.3" />
  <circle cx="822.5480675304863" cy="918.1351107059689" r="3" style="fill-opacity:0.3" />
  <circle cx="921.1661989519558" cy="989.4188052066421" r="3" style="fill-opacity:0.3" />
  <circle cx="877.5620981257633" cy="370.9916663195398" r="3" style="fill-opacity:0.3" />
  <circle cx="570.2371825388462" cy="320.4915416751469" r="3" style="fill-opacity:0.3" />
  <circle cx="524.9731922886875" cy="313.1492062794999" r="3" style="fill-opacity:0.3" />
  <circle cx="862.23258236982" cy="193.32241416067032" r="3" style="fill-opacity:0.3" />
  <circle cx="876.5005151969037" cy="936.9356623509865" r="3" style="fill-opacity:0.3" />
  <circle cx="688.6194114478324" cy="496.77207874720733" r="3" style="fill-opacity:0.3" />
  <circle cx="783.7320398806215" cy="916.9803251300602" r="3" style="fill-opacity:0.3" />
  <circle cx="609.0628553993862" cy="405.1644107780785" r="3" style="fill-opacity:0.3" />
  <circle cx="520.0820870540988" cy="442.35566485934163" r="3" style="fill-opacity:0.3" />
  <circle cx="775.2056513890927" cy="958.8257192902882" r="3" style="fill-opacity:0.3" />
  <circle cx="827.8224231090779" cy="983.5860279419019" r="3" style="fill-opacity:0.3" />
  <circle cx="956.5092859516803" cy="1.1908768066763047" r="3" style="fill-opacity:0.3" />
  <circle cx="800.5965264436026" cy="945.2113714423308" r="3" style="fill-opacity:0.3" />
  <circle cx="800.5965264436026" cy="945.2113714423308" r="3" style="fill-opacity:0.3" />
  <circle cx="841.8415476858966" cy="995.4247695972135" r="3" style="fill-opacity:0.3" />
  <circle cx="902.872668783412" cy="971.8750958452325" r="3" style="fill-opacity:0.3" />
  <circle cx="749.5227930484009" cy="921.3283173931854" r="3" style="fill-opacity:0.3" />
  <circle cx="749.5227930484009" cy="921.3283173931854" r="3" style="fill-opacity:0.3" />
  <circle cx="895.4361368144023" cy="998.3192447672567" r="3" style="fill-opacity:0.3" />
  <circle cx="753.7464735361253" cy="365.4024734833292" r="3" style="fill-opacity:0.3" />
  <circle cx="602.6304549243064" cy="329.12635100278453" r="3" style="fill-opacity:0.3" />
  <circle cx="887.946228692372" cy="159.11144168612043" r="3" style="fill-opacity:0.3" />
  <circle cx="821.162025303023" cy="534.4198227988196" r="3" style="fill-opacity:0.3" />
  <circle cx="821.162025303023" cy="534.4198227988196" r="3" style="fill-opacity:0.3" />
  <circle cx="821.162025303023" cy="534.4198227988196" r="3" style="fill-opacity:0.3" />
  <circle cx="581.6456260983988" cy="406.43421072081793" r="3" style="fill-opacity:0.3" />
  <circle cx="765.2584346920258" cy="928.1737783415638" r="3" style="fill-opacity:0.3" />
  <circle cx="338.6770572803003" cy="322.69665843718855" r="3" style="fill-opacity:0.3" />
  <circle cx="622.4836934499282" cy="369.05213699235827" r="3" style="fill-opacity:0.3" />
  <circle cx="555.5917579809472" cy="306.0895577462008" r="3" style="fill-opacity:0.3" />
  <circle cx="867.8958629819883" cy="154.33265824191443" r="3" style="fill-opacity:0.3" />
  <circle cx="604.1715349854954" cy="420.83905400847544" r="3" style="fill-opacity:0.3" />
  <circle cx="604.1715349854954" cy="420.83905400847544" r="3" style="fill-opacity:0.3" />
  <circle cx="604.1715349854954" cy="420.83905400847544" r="3" style="fill-opacity:0.3" />
  <circle cx="671.0638668192543" cy="457.37872632231426" r="3" style="fill-opacity:0.3" />
  <circle cx="1032.6348333883511" cy="536.4872029968931" r="3" style="fill-opacity:0.3" />
  <circle cx="388.05786176989204" cy="392.5789516853834" r="3" style="fill-opacity:0.3" />
  <circle cx="333.92416549804346" cy="347.42785251948055" r="3" style="fill-opacity:0.3" />
  <circle cx="857.9856847667023" cy="115.53434983263215" r="3" style="fill-opacity:0.3" />
  <circle cx="768.8830753775942" cy="913.1313170139491" r="3" style="fill-opacity:0.3" />
  <circle cx="913.134331679498" cy="985.6281394186543" r="3" style="fill-opacity:0.3" />
  <circle cx="913.134331679498" cy="985.6281394186543" r="3" style="fill-opacity:0.3" />
  <circle cx="913.134331679498" cy="985.6281394186543" r="3" style="fill-opacity:0.3" />
  <circle cx="862.8591934059231" cy="955.1045550047637" r="3" style="fill-opacity:0.3" />
  <circle cx="704.4774042770646" cy="402.094675308174" r="3" style="fill-opacity:0.3" />
  <circle cx="524.8176549187091" cy="357.7234323810959" r="3" style="fill-opacity:0.3" />
  <circle cx="835.9763206740993" cy="902.8231078908414" r="3" style="fill-opacity:0.3" />
  <circle cx="862.302053617153" cy="935.5118965751852" r="3" style="fill-opacity:0.3" />
  <circle cx="936.6079986311781" cy="934.3543498777062" r="3" style="fill-opacity:0.3" />
  <circle cx="761.8209169659159" cy="938.009463214325" r="3" style="fill-opacity:0.3" />
  <circle cx="720.3800714608183" cy="843.4186304538775" r="3" style="fill-opacity:0.3" />
  <circle cx="340.2477900534485" cy="352.86885617463923" r="3" style="fill-opacity:0.3" />
  <circle cx="351.920942281438" cy="355.3419928925672" r="3" style="fill-opacity:0.3" />
  <circle cx="844.9844027894756" cy="80.61499987811004" r="3" style="fill-opacity:0.3" />
  <circle cx="739.3378473933278" cy="931.6886321086272" r="3" style="fill-opacity:0.3" />
  <circle cx="558.7720286003531" cy="352.72928054204573" r="3" style="fill-opacity:0.3" />
  <circle cx="870.2906262311218" cy="138.31774467738794" r="3" style="fill-opacity:0.3" />
  <circle cx="837.3517341026351" cy="128.686460120653" r="3" style="fill-opacity:0.3" />
  <circle cx="890.3078754846244" cy="948.8870791163173" r="3" style="fill-opacity:0.3" />
  <circle cx="795.5327914909972" cy="905.6700079460426" r="3" style="fill-opacity:0.3" />
  <circle cx="923.4603555525626" cy="952.1894878966727" r="3" style="fill-opacity:0.3" />
  <circle cx="808.5570360394181" cy="913.0003617133858" r="3" style="fill-opacity:0.3" />
  <circle cx="806.1273824251393" cy="897.2634089493173" r="3" style="fill-opacity:0.3" />
  <circle cx="876.7417389162065" cy="960.0852309769502" r="3" style="fill-opacity:0.3" />
  <circle cx="559.6401124469996" cy="412.20795976853253" r="3" style="fill-opacity:0.3" />
  <circle cx="768.1382026775777" cy="924.8647150206693" r="3" style="fill-opacity:0.3" />
  <circle cx="816.1358286528151" cy="529.3680290568827" r="3" style="fill-opacity:0.3" />
  <circle cx="326.83911633439703" cy="353.7039954732431" r="3" style="fill-opacity:0.3" />
  <circle cx="636.6089044184189" cy="297.7330194061973" r="3" style="fill-opacity:0.3" />
  <circle cx="636.6089044184189" cy="297.7330194061973" r="3" style="fill-opacity:0.3" />
  <circle cx="394.90258714684484" cy="389.7535944545895" r="3" style="fill-opacity:0.3" />
  <circle cx="384.49225850282954" cy="394.6419185600949" r="3" style="fill-opacity:0.3" />
  <circle cx="942.6010344688966" cy="61.7758939094921" r="3" style="fill-opacity:0.3" />
  <circle cx="788.6515646571504" cy="208.7904744021417" r="3" style="fill-opacity:0.3" />
  <circle cx="854.7695324175347" cy="191.29650110809183" r="3" style="fill-opacity:0.3" />
  <circle cx="854.7695324175347" cy="191.29650110809183" r="3" style="fill-opacity:0.3" />
  <circle cx="630.6612115356606" cy="379.9476843656275" r="3" style="fill-opacity:0.3" />
  <circle cx="289.47713613332786" cy="495.3213403176429" r="3" style="fill-opacity:0.3" />
  <circle cx="864.301624723564" cy="179.1754613162487" r="3" style="fill-opacity:0.3" />
  <circle cx="857.7498540424187" cy="126.90706950853372" r="3" style="fill-opacity:0.3" />
  <circle cx="880.0301336808133" cy="169.25253191364865" r="3" style="fill-opacity:0.3" />
  <circle cx="693.0708703856965" cy="437.3551059349329" r="3" style="fill-opacity:0.3" />
  <circle cx="693.0708703856965" cy="437.3551059349329" r="3" style="fill-opacity:0.3" />
  <circle cx="693.0708703856965" cy="437.3551059349329" r="3" style="fill-opacity:0.3" />
  <circle cx="850.2810487368249" cy="851.2626915917842" r="3" style="fill-opacity:0.3" />
  <circle cx="766.8389816436745" cy="920.3980748572786" r="3" style="fill-opacity:0.3" />
  <circle cx="775.9768987296017" cy="939.5038456517565" r="3" style="fill-opacity:0.3" />
  <circle cx="1074.3334765645038" cy="545.8666141957453" r="3" style="fill-opacity:0.3" />
  <circle cx="757.0591664014936" cy="251.8569097033695" r="3" style="fill-opacity:0.3" />
  <circle cx="866.2756277458626" cy="148.22491901384288" r="3" style="fill-opacity:0.3" />
  <circle cx="866.2756277458626" cy="148.22491901384288" r="3" style="fill-opacity:0.3" />
  <circle cx="838.3729668488298" cy="968.8545873273856" r="3" style="fill-opacity:0.3" />
  <circle cx="897.496616919111" cy="993.0181941509964" r="3" style="fill-opacity:0.3" />
  <circle cx="622.0249731193156" cy="358.45559092775557" r="3" style="fill-opacity:0.3" />
  <circle cx="532.9442270632818" cy="303.9193079952638" r="3" style="fill-opacity:0.3" />
  <circle cx="588.2247319970802" cy="406.16373482880664" r="3" style="fill-opacity:0.3" />
  <circle cx="379.8404790606227" cy="508.91435089937767" r="3" style="fill-opacity:0.3" />
  <circle cx="871.0360226406459" cy="138.15996948007066" r="3" style="fill-opacity:0.3" />
  <circle cx="789.0377918553494" cy="498.33910117572316" r="3" style="fill-opacity:0.3" />
  <circle cx="820.0734135044169" cy="902.2340799705389" r="3" style="fill-opacity:0.3" />
  <circle cx="538.0927544873442" cy="429.09900031807933" r="3" style="fill-opacity:0.3" />
  <circle cx="800.6401038122095" cy="956.4813080818257" r="3" style="fill-opacity:0.3" />
  <circle cx="739.0941932799682" cy="920.2392204715121" r="3" style="fill-opacity:0.3" />
  <circle cx="816.5685159765312" cy="902.3295672556444" r="3" style="fill-opacity:0.3" />
  <circle cx="1035.7783684706455" cy="551.7732228410165" r="3" style="fill-opacity:0.3" />
  <circle cx="872.7361956705051" cy="99.8879282504745" r="3" style="fill-opacity:0.3" />
  <circle cx="908.152695584823" cy="981.1984323789146" r="3" style="fill-opacity:0.3" />
  <circle cx="845.4885995657498" cy="959.247231299532" r="3" style="fill-opacity:0.3" />
  <circle cx="792.8435098464694" cy="951.2987115601316" r="3" style="fill-opacity:0.3" />
  <circle cx="900.7720168092128" cy="917.6106809800893" r="3" style="fill-opacity:0.3" />
  <circle cx="900.7720168092128" cy="917.6106809800893" r="3" style="fill-opacity:0.3" />
  <circle cx="900.7720168092128" cy="917.6106809800893" r="3" style="fill-opacity:0.3" />
  <circle cx="865.9080676875984" cy="970.4231697270976" r="3" style="fill-opacity:0.3" />
  <circle cx="865.9080676875984" cy="970.4231697270976" r="3" style="fill-opacity:0.3" />
  <circle cx="865.9080676875984" cy="970.4231697270976" r="3" style="fill-opacity:0.3" />
  <circle cx="579.2701599261932" cy="381.4899669709405" r="3" style="fill-opacity:0.3" />
  <circle cx="573.6871887269579" cy="336.30591696436596" r="3" style="fill-opacity:0.3" />
  <circle cx="514.695515626398" cy="329.27372491991525" r="3" style="fill-opacity:0.3" />
  <circle cx="623.4213054736459" cy="370.3800159982545" r="3" style="fill-opacity:0.3" />
  <circle cx="847.7955080022286" cy="143.30742477233338" r="3" style="fill-opacity:0.3" />
  <circle cx="593.9133633978544" cy="394.6900662594768" r="3" style="fill-opacity:0.3" />
  <circle cx="647.1757828391899" cy="760.4407325747413" r="3" style="fill-opacity:0.3" />
  <circle cx="357.04753281401224" cy="337.778007028756" r="3" style="fill-opacity:0.3" />
  <circle cx="960.8079753682248" cy="20.736691334009514" r="3" style="fill-opacity:0.3" />
  <circle cx="791.5226307569668" cy="936.6970847253089" r="3" style="fill-opacity:0.3" />
  <circle cx="830.681693324658" cy="986.0312829648072" r="3" style="fill-opacity:0.3" />
  <circle cx="830.681693324658" cy="986.0312829648072" r="3" style="fill-opacity:0.3" />
  <circle cx="830.681693324658" cy="986.0312829648072" r="3" style="fill-opacity:0.3" />
  <circle cx="870.2915703564576" cy="959.6877277751712" r="3" style="fill-opacity:0.3" />
  <circle cx="870.2915703564576" cy="959.6877277751712" r="3" style="fill-opacity:0.3" />
  <circle cx="870.2915703564576" cy="959.6877277751712" r="3" style="fill-opacity:0.3" />
  <circle cx="804.5998339400061" cy="384.77173994241883" r="3" style="fill-opacity:0.3" />
  <circle cx="389.9550633885198" cy="543.807711556443" r="3" style="fill-opacity:0.3" />
  <circle cx="802.726538332813" cy="908.8479443145848" r="3" style="fill-opacity:0.3" />
  <circle cx="889.7677355460577" cy="934.3094847866707" r="3" style="fill-opacity:0.3" />
  <circle cx="889.7677355460577" cy="934.3094847866707" r="3" style="fill-opacity:0.3" />
  <circle cx="814.9608693347989" cy="895.8328697747344" r="3" style="fill-opacity:0.3" />
  <circle cx="875.4367725686727" cy="941.0558386900485" r="3" style="fill-opacity:0.3" />
  <circle cx="781.0809957972263" cy="909.6720096800964" r="3" style="fill-opacity:0.3" />
  <circle cx="764.4049887524753" cy="908.7040655579967" r="3" style="fill-opacity:0.3" />
  <circle cx="556.5463662257804" cy="414.5607753280646" r="3" style="fill-opacity:0.3" />
  <circle cx="765.1695210857453" cy="876.021989158592" r="3" style="fill-opacity:0.3" />
  <circle cx="319.7807726098249" cy="351.93287762830465" r="3" style="fill-opacity:0.3" />
  <circle cx="883.3517822025225" cy="104.55664562212995" r="3" style="fill-opacity:0.3" />
  <circle cx="718.6739651982732" cy="263.6022322858402" r="3" style="fill-opacity:0.3" />
  <circle cx="497.37513748282504" cy="294.4361405692876" r="3" style="fill-opacity:0.3" />
  <circle cx="881.1229408955892" cy="145.3957972843169" r="3" style="fill-opacity:0.3" />
  <circle cx="921.8173271846451" cy="951.51711611597" r="3" style="fill-opacity:0.3" />
  <circle cx="918.4618014744286" cy="950.4714152886446" r="3" style="fill-opacity:0.3" />
  <circle cx="805.4427686381414" cy="914.1125750456558" r="3" style="fill-opacity:0.3" />
  <circle cx="805.4427686381414" cy="914.1125750456558" r="3" style="fill-opacity:0.3" />
  <circle cx="805.4427686381414" cy="914.1125750456558" r="3" style="fill-opacity:0.3" />
  <circle cx="768.6624247839959" cy="919.7371519585483" r="3" style="fill-opacity:0.3" />
  <circle cx="768.6624247839959" cy="919.7371519585483" r="3" style="fill-opacity:0.3" />
  <circle cx="768.6624247839959" cy="919.7371519585483" r="3" style="fill-opacity:0.3" />
  <circle cx="858.6128113503399" cy="947.040527946526" r="3" style="fill-opacity:0.3" />
  <circle cx="1067.375374915996" cy="505.4319023778986" r="3" style="fill-opacity:0.3" />
  <circle cx="323.57423076252144" cy="365.1737982163267" r="3" style="fill-opacity:0.3" />
  <circle cx="862.0286012584637" cy="114.39225668368283" r="3" style="fill-opacity:0.3" />
  <circle cx="614.3990570951397" cy="248.43155498605938" r="3" style="fill-opacity:0.3" />
  <circle cx="840.9632164185913" cy="932.3200817260495" r="3" style="fill-opacity:0.3" />
  <circle cx="802.0211913514288" cy="477.0188548289705" r="3" style="fill-opacity:0.3" />
  <circle cx="587.5306002169782" cy="419.6263975011791" r="3" style="fill-opacity:0.3" />
  <circle cx="587.5306002169782" cy="419.6263975011791" r="3" style="fill-opacity:0.3" />
  <circle cx="554.5370207909918" cy="440.03714816945524" r="3" style="fill-opacity:0.3" />
  <circle cx="819.5891620336939" cy="905.3338432260351" r="3" style="fill-opacity:0.3" />
  <circle cx="794.9351814102879" cy="900.8673353225121" r="3" style="fill-opacity:0.3" />
  <circle cx="380.48871653433883" cy="387.618206824841" r="3" style="fill-opacity:0.3" />
  <circle cx="826.0912070399193" cy="114.02419652301656" r="3" style="fill-opacity:0.3" />
  <circle cx="742.4836547117387" cy="173.6065351587554" r="3" style="fill-opacity:0.3" />
  <circle cx="892.4052863935491" cy="173.76192444823812" r="3" style="fill-opacity:0.3" />
  <circle cx="892.4052863935491" cy="173.76192444823812" r="3" style="fill-opacity:0.3" />
  <circle cx="892.4052863935491" cy="173.76192444823812" r="3" style="fill-opacity:0.3" />
  <circle cx="867.1721998793877" cy="529.1858518891981" r="3" style="fill-opacity:0.3" />
  <circle cx="869.9037158746711" cy="128.96276582716638" r="3" style="fill-opacity:0.3" />
  <circle cx="869.3288957716139" cy="166.63333912129713" r="3" style="fill-opacity:0.3" />
  <circle cx="886.3812165539101" cy="201.86125752790173" r="3" style="fill-opacity:0.3" />
  <circle cx="652.0871301285441" cy="768.2952251550546" r="3" style="fill-opacity:0.3" />
  <circle cx="799.9153884981486" cy="982.4755201648908" r="3" style="fill-opacity:0.3" />
  <circle cx="758.8337427909629" cy="926.1923328033857" r="3" style="fill-opacity:0.3" />
  <circle cx="860.9274823135039" cy="539.9587352882739" r="3" style="fill-opacity:0.3" />
  <circle cx="1028.6976929496495" cy="544.7751381941073" r="3" style="fill-opacity:0.3" />
  <circle cx="372.2406481243917" cy="364.31922012224646" r="3" style="fill-opacity:0.3" />
  <circle cx="863.9488417035972" cy="209.23091350051968" r="3" style="fill-opacity:0.3" />
  <circle cx="863.9488417035972" cy="209.23091350051968" r="3" style="fill-opacity:0.3" />
  <circle cx="877.1684583377852" cy="175.72287079588835" r="3" style="fill-opacity:0.3" />
  <circle cx="764.268896634736" cy="921.7236718747251" r="3" style="fill-opacity:0.3" />
  <circle cx="786.6313137556082" cy="904.5282668238312" r="3" style="fill-opacity:0.3" />
  <circle cx="786.6313137556082" cy="904.5282668238312" r="3" style="fill-opacity:0.3" />
  <circle cx="855.3311250705822" cy="931.2358106383674" r="3" style="fill-opacity:0.3" />
  <circle cx="806.8318186482433" cy="523.0424419664192" r="3" style="fill-opacity:0.3" />
  <circle cx="303.84417018475045" cy="503.8446364631545" r="3" style="fill-opacity:0.3" />
  <circle cx="833.3660445760016" cy="154.95963665216743" r="3" style="fill-opacity:0.3" />
  <circle cx="855.1462790415237" cy="901.4646575159557" r="3" style="fill-opacity:0.3" />
  <circle cx="835.9763206740993" cy="902.8231078908414" r="3" style="fill-opacity:0.3" />
  <circle cx="780.7372887924241" cy="955.2004788065162" r="3" style="fill-opacity:0.3" />
  <circle cx="804.3806204176848" cy="974.4699234912694" r="3" style="fill-opacity:0.3" />
  <circle cx="761.8209169659159" cy="938.009463214325" r="3" style="fill-opacity:0.3" />
  <circle cx="805.831061202503" cy="969.7130432763562" r="3" style="fill-opacity:0.3" />
  <circle cx="844.2488878320752" cy="561.2146959728428" r="3" style="fill-opacity:0.3" />
  <circle cx="328.8902137505444" cy="328.00662510286844" r="3" style="fill-opacity:0.3" />
  <circle cx="774.1733803216296" cy="930.3540805604953" r="3" style="fill-opacity:0.3" />
  <circle cx="660.230666741112" cy="388.9223039798631" r="3" style="fill-opacity:0.3" />
  <circle cx="860.250617586749" cy="186.8813598975025" r="3" style="fill-opacity:0.3" />
  <circle cx="964.5666615175642" cy="937.3207818421706" r="3" style="fill-opacity:0.3" />
  <circle cx="327.15963971812175" cy="356.28206022351594" r="3" style="fill-opacity:0.3" />
  <circle cx="405.9486462015919" cy="386.4195345627833" r="3" style="fill-opacity:0.3" />
  <circle cx="844.3022288010382" cy="122.50501267317392" r="3" style="fill-opacity:0.3" />
  <circle cx="548.4432424325224" cy="344.9440351558376" r="3" style="fill-opacity:0.3" />
  <circle cx="668.9989825865831" cy="390.06239491857747" r="3" style="fill-opacity:0.3" />
  <circle cx="811.2512291957432" cy="359.2624712527796" r="3" style="fill-opacity:0.3" />
  <circle cx="826.9700715310476" cy="437.74149732677347" r="3" style="fill-opacity:0.3" />
  <circle cx="837.1676761627734" cy="153.3342454517867" r="3" style="fill-opacity:0.3" />
  <circle cx="891.8714584594362" cy="203.24704427781063" r="3" style="fill-opacity:0.3" />
  <circle cx="891.8714584594362" cy="203.24704427781063" r="3" style="fill-opacity:0.3" />
  <circle cx="891.8714584594362" cy="203.24704427781063" r="3" style="fill-opacity:0.3" />
  <circle cx="875.8977772677404" cy="189.25168280920448" r="3" style="fill-opacity:0.3" />
  <circle cx="841.9155499400578" cy="154.59151161599038" r="3" style="fill-opacity:0.3" />
  <circle cx="786.5222879556977" cy="917.1346862805839" r="3" style="fill-opacity:0.3" />
  <circle cx="879.2073142729744" cy="583.0379542886087" r="3" style="fill-opacity:0.3" />
  <circle cx="931.7071081698766" cy="539.174326647375" r="3" style="fill-opacity:0.3" />
  <circle cx="976.1661244853445" cy="508.50368335974673" r="3" style="fill-opacity:0.3" />
  <circle cx="381.2846920142487" cy="357.05872970145555" r="3" style="fill-opacity:0.3" />
  <circle cx="905.1623599987589" cy="91.49847393769258" r="3" style="fill-opacity:0.3" />
  <circle cx="770.0421026723317" cy="148.95881842546228" r="3" style="fill-opacity:0.3" />
  <circle cx="936.7725347341407" cy="904.1074106592491" r="3" style="fill-opacity:0.3" />
  <circle cx="936.7725347341407" cy="904.1074106592491" r="3" style="fill-opacity:0.3" />
  <circle cx="936.7725347341407" cy="904.1074106592491" r="3" style="fill-opacity:0.3" />
  <circle cx="790.9359349080679" cy="929.6116884450385" r="3" style="fill-opacity:0.3" />
  <circle cx="897.7104355571091" cy="844.615423804144" r="3" style="fill-opacity:0.3" />
  <circle cx="897.7104355571091" cy="844.615423804144" r="3" style="fill-opacity:0.3" />
  <circle cx="865.574960257499" cy="192.5992192402678" r="3" style="fill-opacity:0.3" />
  <circle cx="794.5026203127211" cy="928.9485487553055" r="3" style="fill-opacity:0.3" />
  <circle cx="684.5506606042752" cy="524.6765078066909" r="3" style="fill-opacity:0.3" />
  <circle cx="684.5506606042752" cy="524.6765078066909" r="3" style="fill-opacity:0.3" />
  <circle cx="684.5506606042752" cy="524.6765078066909" r="3" style="fill-opacity:0.3" />
  <circle cx="866.3834260148002" cy="911.8901344380315" r="3" style="fill-opacity:0.3" />
  <circle cx="867.1770451954089" cy="992.0153245127328" r="3" style="fill-opacity:0.3" />
  <circle cx="867.1770451954089" cy="992.0153245127328" r="3" style="fill-opacity:0.3" />
  <circle cx="972.2385336851801" cy="529.7835655280322" r="3" style="fill-opacity:0.3" />
  <circle cx="975.5287564326586" cy="556.7370817781508" r="3" style="fill-opacity:0.3" />
  <circle cx="888.0779453236722" cy="540.621460081906" r="3" style="fill-opacity:0.3" />
  <circle cx="351.92048054623285" cy="343.9507265003129" r="3" style="fill-opacity:0.3" />
  <circle cx="325.452325937507" cy="335.5283375854822" r="3" style="fill-opacity:0.3" />
  <circle cx="910.7138228270288" cy="48.58280490015125" r="3" style="fill-opacity:0.3" />
  <circle cx="877.0265661488987" cy="983.2199179818483" r="3" style="fill-opacity:0.3" />
  <circle cx="877.0265661488987" cy="983.2199179818483" r="3" style="fill-opacity:0.3" />
  <circle cx="877.0265661488987" cy="983.2199179818483" r="3" style="fill-opacity:0.3" />
  <circle cx="749.7339338165516" cy="935.4412591235924" r="3" style="fill-opacity:0.3" />
  <circle cx="689.180202340176" cy="373.4071415612478" r="3" style="fill-opacity:0.3" />
  <circle cx="557.3016292466781" cy="378.5673959281224" r="3" style="fill-opacity:0.3" />
  <circle cx="859.2078157941696" cy="201.18594817209726" r="3" style="fill-opacity:0.3" />
  <circle cx="840.0180738404109" cy="146.82953106463734" r="3" style="fill-opacity:0.3" />
  <circle cx="840.7278203368573" cy="943.574305601923" r="3" style="fill-opacity:0.3" />
  <circle cx="827.081374395649" cy="895.4151838104641" r="3" style="fill-opacity:0.3" />
  <circle cx="784.246493596053" cy="974.8207727338335" r="3" style="fill-opacity:0.3" />
  <circle cx="307.81845697126323" cy="327.76816861973396" r="3" style="fill-opacity:0.3" />
  <circle cx="845.4885995657498" cy="959.247231299532" r="3" style="fill-opacity:0.3" />
  <circle cx="792.8435098464694" cy="951.2987115601316" r="3" style="fill-opacity:0.3" />
  <circle cx="857.4221659916819" cy="960.6090789229836" r="3" style="fill-opacity:0.3" />
  <circle cx="857.4221659916819" cy="960.6090789229836" r="3" style="fill-opacity:0.3" />
  <circle cx="842.2109206052579" cy="985.1817176858407" r="3" style="fill-opacity:0.3" />
  <circle cx="268.4524450172783" cy="468.6614765961937" r="3" style="fill-opacity:0.3" />
  <circle cx="400.99794256766637" cy="497.01558245906625" r="3" style="fill-opacity:0.3" />
  <circle cx="864.8376001147103" cy="127.11815845276885" r="3" style="fill-opacity:0.3" />
  <circle cx="799.3707616444335" cy="902.0852753033864" r="3" style="fill-opacity:0.3" />
  <circle cx="792.409517580327" cy="909.4600415797436" r="3" style="fill-opacity:0.3" />
  <circle cx="852.9218203165966" cy="942.6662806845183" r="3" style="fill-opacity:0.3" />
  <circle cx="338.74331088658937" cy="315.8691619280572" r="3" style="fill-opacity:0.3" />
  <circle cx="363.14029868917424" cy="391.9532602731581" r="3" style="fill-opacity:0.3" />
  <circle cx="413.7383061596242" cy="394.14021240707547" r="3" style="fill-opacity:0.3" />
  <circle cx="836.4797109828359" cy="88.04471765026686" r="3" style="fill-opacity:0.3" />
  <circle cx="704.9651522072689" cy="264.29417341886983" r="3" style="fill-opacity:0.3" />
  <circle cx="782.2212950943533" cy="963.612268952083" r="3" style="fill-opacity:0.3" />
  <circle cx="782.2212950943533" cy="963.612268952083" r="3" style="fill-opacity:0.3" />
  <circle cx="821.1137817469082" cy="1001.2495857808776" r="3" style="fill-opacity:0.3" />
  <circle cx="889.3914618334774" cy="998.2732884941445" r="3" style="fill-opacity:0.3" />
  <circle cx="654.0595353984733" cy="384.3985011449813" r="3" style="fill-opacity:0.3" />
  <circle cx="336.6118414759917" cy="472.23773703146674" r="3" style="fill-opacity:0.3" />
  <circle cx="890.8706687745637" cy="178.63831008139064" r="3" style="fill-opacity:0.3" />
  <circle cx="825.6104681815444" cy="908.7065636907297" r="3" style="fill-opacity:0.3" />
  <circle cx="934.450873559139" cy="937.6431300450806" r="3" style="fill-opacity:0.3" />
  <circle cx="934.450873559139" cy="937.6431300450806" r="3" style="fill-opacity:0.3" />
  <circle cx="780.2356712404062" cy="899.8073298437746" r="3" style="fill-opacity:0.3" />
  <circle cx="626.7985208197617" cy="394.1511064481619" r="3" style="fill-opacity:0.3" />
  <circle cx="326.1285562868518" cy="342.6392425110462" r="3" style="fill-opacity:0.3" />
  <circle cx="784.7368987317419" cy="118.20840496391979" r="3" style="fill-opacity:0.3" />
  <circle cx="842.0044235351143" cy="938.4076925110719" r="3" style="fill-opacity:0.3" />
  <circle cx="932.8866076188995" cy="896.7447278960702" r="3" style="fill-opacity:0.3" />
  <circle cx="932.8866076188995" cy="896.7447278960702" r="3" style="fill-opacity:0.3" />
  <circle cx="932.8866076188995" cy="896.7447278960702" r="3" style="fill-opacity:0.3" />
  <circle cx="587.611399678476" cy="373.91407096802124" r="3" style="fill-opacity:0.3" />
  <circle cx="854.5197666509403" cy="170.5593457814886" r="3" style="fill-opacity:0.3" />
  <circle cx="856.9754550490675" cy="940.0101357257611" r="3" style="fill-opacity:0.3" />
  <circle cx="580.8684998841272" cy="406.14637244390093" r="3" style="fill-opacity:0.3" />
  <circle cx="763.0543233996023" cy="928.3767989691368" r="3" style="fill-opacity:0.3" />
  <circle cx="934.7710388314746" cy="544.7315322455288" r="3" style="fill-opacity:0.3" />
  <circle cx="373.74251057156704" cy="366.77525180037503" r="3" style="fill-opacity:0.3" />
  <circle cx="958.861393993098" cy="3.969523434052297" r="3" style="fill-opacity:0.3" />
  <circle cx="892.3194475999339" cy="85.57242014674986" r="3" style="fill-opacity:0.3" />
  <circle cx="869.9037158746711" cy="128.96276582716638" r="3" style="fill-opacity:0.3" />
  <circle cx="869.9037158746711" cy="128.96276582716638" r="3" style="fill-opacity:0.3" />
  <circle cx="869.9037158746711" cy="128.96276582716638" r="3" style="fill-opacity:0.3" />
  <circle cx="845.9244767969119" cy="955.1701779831375" r="3" style="fill-opacity:0.3" />
  <circle cx="927.0897351376033" cy="993.354626514993" r="3" style="fill-opacity:0.3" />
  <circle cx="927.0897351376033" cy="993.354626514993" r="3" style="fill-opacity:0.3" />
  <circle cx="801.5295633571311" cy="374.7392680661784" r="3" style="fill-opacity:0.3" />
  <circle cx="662.7920164536685" cy="395.0510997675516" r="3" style="fill-opacity:0.3" />
  <circle cx="607.2014780593157" cy="369.58076826537535" r="3" style="fill-opacity:0.3" />
  <circle cx="536.1547721972755" cy="287.6408496518117" r="3" style="fill-opacity:0.3" />
  <circle cx="460.8378874794568" cy="275.38074350231676" r="3" style="fill-opacity:0.3" />
  <circle cx="824.225753652957" cy="129.13025131576111" r="3" style="fill-opacity:0.3" />
  <circle cx="915.6175408855574" cy="192.52154295335572" r="3" style="fill-opacity:0.3" />
  <circle cx="839.5216372158173" cy="912.243432208062" r="3" style="fill-opacity:0.3" />
  <circle cx="769.3440323404726" cy="948.539059974907" r="3" style="fill-opacity:0.3" />
  <circle cx="858.2212977380098" cy="515.076694211109" r="3" style="fill-opacity:0.3" />
  <circle cx="955.4373596225441" cy="558.4031062069417" r="3" style="fill-opacity:0.3" />
  <circle cx="300.35679887825347" cy="385.07207882208155" r="3" style="fill-opacity:0.3" />
  <circle cx="205.00278908158322" cy="392.03079108326904" r="3" style="fill-opacity:0.3" />
  <circle cx="541.5748683919794" cy="298.11890843928836" r="3" style="fill-opacity:0.3" />
  <circle cx="868.021813034588" cy="894.1394128562706" r="3" style="fill-opacity:0.3" />
  <circle cx="871.1278669243276" cy="904.7033386922978" r="3" style="fill-opacity:0.3" />
  <circle cx="615.830700941938" cy="389.22946308987895" r="3" style="fill-opacity:0.3" />
  <circle cx="478.62303607605446" cy="487.1787574780069" r="3" style="fill-opacity:0.3" />
  <circle cx="813.4133918857822" cy="977.1493784342612" r="3" style="fill-opacity:0.3" />
  <circle cx="309.8751220255319" cy="331.8714315027591" r="3" style="fill-opacity:0.3" />
  <circle cx="338.61511177112874" cy="345.34516755172194" r="3" style="fill-opacity:0.3" />
  <circle cx="352.84458328685747" cy="359.47939841240213" r="3" style="fill-opacity:0.3" />
  <circle cx="916.9209283413911" cy="42.939398067168106" r="3" style="fill-opacity:0.3" />
  <circle cx="938.7074659072999" cy="1.827608373578122" r="3" style="fill-opacity:0.3" />
  <circle cx="808.7741947990812" cy="94.15858563268975" r="3" style="fill-opacity:0.3" />
  <circle cx="821.3676741012691" cy="183.15307807754255" r="3" style="fill-opacity:0.3" />
  <circle cx="818.3039869412368" cy="982.8346927917576" r="3" style="fill-opacity:0.3" />
  <circle cx="818.3039869412368" cy="982.8346927917576" r="3" style="fill-opacity:0.3" />
  <circle cx="818.3039869412368" cy="982.8346927917576" r="3" style="fill-opacity:0.3" />
  <circle cx="864.5333608342173" cy="872.0084003892591" r="3" style="fill-opacity:0.3" />
  <circle cx="864.5333608342173" cy="872.0084003892591" r="3" style="fill-opacity:0.3" />
  <circle cx="864.5333608342173" cy="872.0084003892591" r="3" style="fill-opacity:0.3" />
  <circle cx="636.4123321483057" cy="372.8325740507334" r="3" style="fill-opacity:0.3" />
  <circle cx="849.7162702901786" cy="166.47834009609997" r="3" style="fill-opacity:0.3" />
  <circle cx="892.8486391172189" cy="168.3573304885383" r="3" style="fill-opacity:0.3" />
  <circle cx="681.7732618387736" cy="398.7444380039222" r="3" style="fill-opacity:0.3" />
  <circle cx="742.7464722776737" cy="475.7716065707104" r="3" style="fill-opacity:0.3" />
  <circle cx="343.2691989808577" cy="341.4861637427763" r="3" style="fill-opacity:0.3" />
  <circle cx="746.4017614774896" cy="217.21813963053316" r="3" style="fill-opacity:0.3" />
  <circle cx="757.1528030778153" cy="210.29244272023237" r="3" style="fill-opacity:0.3" />
  <circle cx="901.5981057410289" cy="968.8883912776897" r="3" style="fill-opacity:0.3" />
  <circle cx="946.0037878042301" cy="914.3704129486255" r="3" style="fill-opacity:0.3" />
  <circle cx="946.0037878042301" cy="914.3704129486255" r="3" style="fill-opacity:0.3" />
  <circle cx="946.0037878042301" cy="914.3704129486255" r="3" style="fill-opacity:0.3" />
  <circle cx="696.995666878262" cy="396.06772949600986" r="3" style="fill-opacity:0.3" />
  <circle cx="434.269404261705" cy="514.261586264579" r="3" style="fill-opacity:0.3" />
  <circle cx="880.589996614445" cy="176.41863263268806" r="3" style="fill-opacity:0.3" />
  <circle cx="877.9982195280442" cy="154.60562360231708" r="3" style="fill-opacity:0.3" />
  <circle cx="851.9885388624018" cy="946.0783238802991" r="3" style="fill-opacity:0.3" />
  <circle cx="666.3186760479795" cy="424.79861087206433" r="3" style="fill-opacity:0.3" />
  <circle cx="802.625563156776" cy="899.0945347320626" r="3" style="fill-opacity:0.3" />
  <circle cx="560.0213349278896" cy="415.44500821041595" r="3" style="fill-opacity:0.3" />
  <circle cx="832.2952625589013" cy="984.3548696657265" r="3" style="fill-opacity:0.3" />
  <circle cx="874.9077389429345" cy="551.2764847926867" r="3" style="fill-opacity:0.3" />
  <circle cx="296.31551440072735" cy="325.4305648788678" r="3" style="fill-opacity:0.3" />
  <circle cx="741.4310983285028" cy="250.77748110763503" r="3" style="fill-opacity:0.3" />
  <circle cx="795.0016652670707" cy="144.2988218852199" r="3" style="fill-opacity:0.3" />
  <circle cx="933.866966143222" cy="989.9725022558348" r="3" style="fill-opacity:0.3" />
  <circle cx="933.866966143222" cy="989.9725022558348" r="3" style="fill-opacity:0.3" />
  <circle cx="933.866966143222" cy="989.9725022558348" r="3" style="fill-opacity:0.3" />
  <circle cx="933.866966143222" cy="989.9725022558348" r="3" style="fill-opacity:0.3" />
  <circle cx="883.799983789967" cy="979.7722810209862" r="3" style="fill-opacity:0.3" />
  <circle cx="883.799983789967" cy="979.7722810209862" r="3" style="fill-opacity:0.3" />
  <circle cx="883.799983789967" cy="979.7722810209862" r="3" style="fill-opacity:0.3" />
  <circle cx="883.799983789967" cy="979.7722810209862" r="3" style="fill-opacity:0.3" />
  <circle cx="883.799983789967" cy="979.7722810209862" r="3" style="fill-opacity:0.3" />
  <circle cx="883.799983789967" cy="979.7722810209862" r="3" style="fill-opacity:0.3" />
  <circle cx="803.1301265987444" cy="935.1311571315465" r="3" style="fill-opacity:0.3" />
  <circle cx="623.4756559371054" cy="374.4079512162755" r="3" style="fill-opacity:0.3" />
  <circle cx="739.1557450187837" cy="353.25053908589507" r="3" style="fill-opacity:0.3" />
  <circle cx="862.106041729064" cy="393.7990318114143" r="3" style="fill-opacity:0.3" />
  <circle cx="617.8605033593491" cy="375.3833310452074" r="3" style="fill-opacity:0.3" />
  <circle cx="823.9824051629358" cy="145.41242834155844" r="3" style="fill-opacity:0.3" />
  <circle cx="848.9307980083031" cy="139.08745568225513" r="3" style="fill-opacity:0.3" />
  <circle cx="929.5490371058861" cy="911.9557341192866" r="3" style="fill-opacity:0.3" />
  <circle cx="681.8763638980563" cy="447.3917168400612" r="3" style="fill-opacity:0.3" />
  <circle cx="681.8763638980563" cy="447.3917168400612" r="3" style="fill-opacity:0.3" />
  <circle cx="681.8763638980563" cy="447.3917168400612" r="3" style="fill-opacity:0.3" />
  <circle cx="715.0410763591947" cy="496.35036114828307" r="3" style="fill-opacity:0.3" />
  <circle cx="780.021003128814" cy="938.2968451204871" r="3" style="fill-opacity:0.3" />
  <circle cx="798.8239018948906" cy="985.1742403738585" r="3" style="fill-opacity:0.3" />
  <circle cx="764.3351357924153" cy="916.4728854853753" r="3" style="fill-opacity:0.3" />
  <circle cx="783.2259061959443" cy="178.98905076812878" r="3" style="fill-opacity:0.3" />
  <circle cx="861.4523991968717" cy="988.6941735910881" r="3" style="fill-opacity:0.3" />
  <circle cx="792.5400701547957" cy="918.9284555633843" r="3" style="fill-opacity:0.3" />
  <circle cx="847.5909452718405" cy="933.9231796518187" r="3" style="fill-opacity:0.3" />
  <circle cx="847.5909452718405" cy="933.9231796518187" r="3" style="fill-opacity:0.3" />
  <circle cx="731.7507434917723" cy="390.6347600618691" r="3" style="fill-opacity:0.3" />
  <circle cx="661.0281981043723" cy="378.59138189621615" r="3" style="fill-opacity:0.3" />
  <circle cx="538.8150376371298" cy="330.5433828265707" r="3" style="fill-opacity:0.3" />
  <circle cx="859.5303119710694" cy="169.35321906068575" r="3" style="fill-opacity:0.3" />
  <circle cx="792.3934897316655" cy="890.458110889958" r="3" style="fill-opacity:0.3" />
  <circle cx="864.4649488658231" cy="930.8582102638804" r="3" style="fill-opacity:0.3" />
  <circle cx="756.703687331613" cy="515.0345002646966" r="3" style="fill-opacity:0.3" />
  <circle cx="756.703687331613" cy="515.0345002646966" r="3" style="fill-opacity:0.3" />
  <circle cx="756.703687331613" cy="515.0345002646966" r="3" style="fill-opacity:0.3" />
  <circle cx="715.6934759621095" cy="433.5454574879698" r="3" style="fill-opacity:0.3" />
  <circle cx="718.5883322787569" cy="527.0091110305384" r="3" style="fill-opacity:0.3" />
  <circle cx="718.5883322787569" cy="527.0091110305384" r="3" style="fill-opacity:0.3" />
  <circle cx="771.0004660253638" cy="909.7807788500147" r="3" style="fill-opacity:0.3" />
  <circle cx="788.3850788915036" cy="955.0836582327061" r="3" style="fill-opacity:0.3" />
</svg>